<svg xmlns="http://www.w3.org/2000/svg" xmlns:xlink="http://www.w3.org/1999/xlink" width="500" zoomAndPan="magnify" viewBox="0 0 375 374.999991" height="500" preserveAspectRatio="xMidYMid meet" version="1.0"><defs><g/></defs><g fill="#ff00ff" fill-opacity="1"><g transform="translate(49.5689, 180.977031)"><g><path d="M 10.453125 9.871094 L 12.109375 0 L 31.4375 0 C 34.503906 0 36.578125 -0.0820312 37.742188 -0.25 C 39.234375 -0.496094 40.3125 -0.914062 40.976562 -1.574219 C 41.804688 -2.324219 42.386719 -3.566406 42.71875 -5.308594 C 42.964844 -6.46875 43.296875 -8.542969 43.710938 -11.695312 C 45.121094 -21.566406 45.953125 -27.457031 46.203125 -29.445312 C 46.699219 -32.265625 46.949219 -34.089844 46.949219 -35.085938 C 47.03125 -35.75 47.03125 -36.246094 47.03125 -36.664062 C 47.03125 -37.65625 46.949219 -38.488281 46.617188 -39.066406 C 46.117188 -40.230469 44.542969 -40.808594 41.972656 -40.976562 C 40.976562 -41.140625 39.066406 -41.140625 36.246094 -41.140625 L 17.585938 -41.140625 C 14.351562 -41.140625 12.109375 -41.058594 10.949219 -40.894531 C 8.957031 -40.726562 7.546875 -40.144531 6.71875 -39.152344 C 6.136719 -38.402344 5.640625 -37.160156 5.226562 -35.335938 C 5.058594 -34.339844 4.8125 -32.433594 4.394531 -29.445312 L 3.980469 -26.378906 L 0.332031 0 L -1.160156 11.695312 C -1.246094 12.359375 -1.328125 12.773438 -1.410156 13.023438 C -1.492188 13.355469 -1.660156 13.769531 -1.992188 14.101562 C -2.15625 14.433594 -2.488281 14.765625 -2.984375 15.261719 C -3.316406 15.59375 -3.980469 16.089844 -4.976562 16.921875 L -0.996094 16.921875 C 0.164062 16.921875 1.160156 16.839844 1.992188 16.753906 C 3.316406 16.589844 4.394531 16.507812 5.308594 16.175781 C 6.304688 15.84375 7.050781 15.429688 7.632812 15.011719 C 8.542969 14.351562 9.207031 13.4375 9.703125 12.441406 C 10.035156 11.695312 10.285156 10.867188 10.453125 9.871094 Z M 13.6875 -11.695312 L 15.761719 -26.378906 C 15.925781 -27.207031 16.089844 -27.785156 16.175781 -28.035156 C 16.339844 -28.535156 16.421875 -28.78125 16.589844 -28.949219 C 16.839844 -29.195312 17.253906 -29.363281 17.75 -29.363281 C 18.082031 -29.445312 18.664062 -29.445312 19.574219 -29.445312 L 34.421875 -29.445312 L 32.347656 -14.679688 C 32.265625 -13.933594 32.183594 -13.4375 32.101562 -13.105469 C 32.015625 -12.691406 31.851562 -12.359375 31.601562 -12.109375 C 31.4375 -12.027344 31.269531 -11.945312 31.023438 -11.777344 C 30.855469 -11.777344 30.605469 -11.777344 30.277344 -11.695312 Z M 13.6875 -11.695312 "/></g></g></g><g fill="#ff00ff" fill-opacity="1"><g transform="translate(97.343444, 180.977031)"><g><path d="M 20.738281 -58.144531 C 16.753906 -58.144531 14.183594 -58.0625 13.023438 -57.8125 C 11.777344 -57.648438 10.78125 -57.234375 10.121094 -56.570312 C 9.457031 -55.90625 8.875 -54.828125 8.460938 -53.335938 C 8.210938 -52.257812 7.796875 -49.933594 7.300781 -46.449219 L 5.472656 -32.929688 L 3.816406 -21.484375 L 1.660156 -6.054688 C 1.574219 -5.390625 1.492188 -4.894531 1.410156 -4.5625 C 1.328125 -4.230469 1.160156 -3.980469 0.996094 -3.648438 C 0.828125 -3.316406 0.414062 -2.820312 -0.164062 -2.238281 C -0.496094 -1.90625 -1.246094 -1.246094 -2.488281 -0.0820312 L 1.410156 -0.0820312 C 5.058594 -0.0820312 7.464844 -0.164062 8.625 -0.332031 C 10.035156 -0.664062 11.03125 -1.160156 11.695312 -1.824219 C 12.359375 -2.570312 12.855469 -3.734375 13.1875 -5.390625 C 13.519531 -6.46875 13.851562 -8.542969 14.265625 -11.613281 L 16.671875 -28.867188 L 18.996094 -45.453125 Z M 20.738281 -58.144531 "/></g></g></g><g fill="#ff00ff" fill-opacity="1"><g transform="translate(116.420091, 180.977031)"><g><path d="M 37.824219 -41.140625 L 5.722656 -41.140625 L 5.722656 -39.730469 C 5.722656 -37.574219 5.804688 -35.914062 5.804688 -34.921875 C 5.972656 -33.09375 6.304688 -31.851562 6.800781 -31.105469 C 7.382812 -30.359375 8.378906 -29.859375 9.871094 -29.613281 C 10.867188 -29.527344 12.941406 -29.445312 15.925781 -29.445312 L 34.175781 -29.445312 C 34.089844 -28.535156 34.007812 -27.953125 33.925781 -27.621094 C 33.925781 -27.289062 33.84375 -27.039062 33.675781 -26.875 C 33.511719 -26.707031 33.261719 -26.542969 32.929688 -26.460938 C 32.765625 -26.460938 32.265625 -26.378906 31.601562 -26.378906 L 14.265625 -26.378906 C 11.199219 -26.378906 9.042969 -26.292969 7.878906 -26.128906 C 6.46875 -25.960938 5.390625 -25.464844 4.644531 -24.71875 C 3.980469 -24.054688 3.402344 -22.726562 2.984375 -20.738281 C 2.820312 -19.742188 2.488281 -17.75 2.074219 -14.765625 L 1.574219 -11.695312 C 1.160156 -8.378906 0.914062 -6.136719 0.828125 -4.976562 L 0.828125 -4.480469 C 0.828125 -3.152344 0.996094 -2.238281 1.492188 -1.574219 C 1.992188 -0.996094 2.820312 -0.582031 3.980469 -0.332031 C 5.144531 -0.164062 7.714844 0 11.695312 0 L 29.695312 0 C 33.84375 0 36.496094 -0.164062 37.65625 -0.332031 C 38.820312 -0.582031 39.730469 -0.914062 40.394531 -1.410156 C 41.140625 -1.992188 41.722656 -2.902344 42.054688 -4.0625 C 42.46875 -5.226562 42.964844 -7.714844 43.464844 -11.695312 L 44.625 -20.15625 L 45.953125 -29.445312 C 46.367188 -32.433594 46.617188 -34.421875 46.617188 -35.417969 C 46.699219 -35.914062 46.699219 -36.246094 46.699219 -36.578125 C 46.699219 -38.320312 46.285156 -39.484375 45.453125 -40.0625 C 44.957031 -40.476562 44.128906 -40.726562 42.964844 -40.894531 C 41.972656 -41.058594 40.230469 -41.140625 37.824219 -41.140625 Z M 15.761719 -14.765625 L 32.101562 -14.765625 C 32.015625 -13.851562 31.933594 -13.269531 31.851562 -12.941406 C 31.769531 -12.609375 31.6875 -12.277344 31.519531 -12.109375 C 31.4375 -11.945312 31.269531 -11.863281 30.9375 -11.777344 C 30.773438 -11.777344 30.277344 -11.695312 29.613281 -11.695312 L 13.355469 -11.695312 C 13.519531 -12.359375 13.601562 -12.855469 13.601562 -13.105469 C 13.6875 -13.769531 13.769531 -14.183594 13.933594 -14.351562 C 14.101562 -14.515625 14.265625 -14.679688 14.515625 -14.679688 C 14.679688 -14.765625 15.097656 -14.765625 15.761719 -14.765625 Z M 15.761719 -14.765625 "/></g></g></g><g fill="#ff00ff" fill-opacity="1"><g transform="translate(163.862869, 180.977031)"><g><path d="M 4.976562 -29.363281 L 4.5625 -26.378906 L 2.902344 -14.679688 L 2.488281 -11.613281 L 1.660156 -5.804688 C 1.574219 -4.976562 1.492188 -4.394531 1.328125 -4.0625 C 1.246094 -3.734375 1.078125 -3.484375 0.914062 -3.152344 C 0.664062 -2.820312 0.25 -2.40625 -0.414062 -1.824219 C -0.746094 -1.492188 -1.410156 -0.914062 -2.488281 0 L 1.328125 0 C 4.5625 0 6.71875 -0.0820312 7.878906 -0.164062 C 9.703125 -0.414062 10.949219 -0.914062 11.695312 -1.742188 C 12.359375 -2.570312 12.941406 -3.816406 13.269531 -5.558594 C 13.519531 -6.636719 13.851562 -8.625 14.265625 -11.613281 L 14.679688 -14.679688 L 16.339844 -26.378906 C 16.507812 -27.289062 16.589844 -27.871094 16.589844 -28.117188 C 16.753906 -28.617188 17.003906 -28.949219 17.171875 -29.113281 C 17.335938 -29.28125 17.667969 -29.363281 18 -29.363281 C 18.164062 -29.445312 18.414062 -29.445312 18.746094 -29.445312 C 19.078125 -29.445312 19.410156 -29.445312 19.824219 -29.363281 L 35.003906 -29.363281 L 34.589844 -26.378906 L 32.929688 -14.679688 L 32.515625 -11.613281 L 30.855469 0 C 35.003906 0 37.65625 -0.164062 38.820312 -0.332031 C 40.230469 -0.664062 41.222656 -1.160156 41.886719 -1.90625 C 42.386719 -2.570312 42.800781 -3.484375 43.132812 -4.8125 C 43.464844 -5.890625 43.796875 -8.128906 44.292969 -11.613281 L 44.707031 -14.679688 L 46.367188 -26.378906 L 46.78125 -29.363281 C 47.28125 -33.011719 47.527344 -35.417969 47.527344 -36.496094 C 47.527344 -38.320312 47.113281 -39.484375 46.285156 -40.0625 C 45.621094 -40.5625 44.375 -40.894531 42.632812 -40.976562 C 41.804688 -41.058594 40.644531 -41.058594 39.152344 -41.058594 L 15.84375 -41.058594 C 13.4375 -41.058594 11.695312 -40.976562 10.617188 -40.808594 C 9.125 -40.644531 7.960938 -40.0625 7.300781 -39.152344 C 6.71875 -38.488281 6.222656 -37.242188 5.890625 -35.585938 C 5.722656 -34.589844 5.390625 -32.515625 4.976562 -29.363281 Z M 4.976562 -29.363281 "/></g></g></g><g fill="#ff00ff" fill-opacity="1"><g transform="translate(212.135064, 180.977031)"><g><path d="M 17.75 -41.058594 C 13.933594 -41.058594 11.445312 -41.058594 10.285156 -40.894531 C 8.792969 -40.726562 7.632812 -40.230469 6.800781 -39.484375 C 6.054688 -38.734375 5.472656 -37.410156 5.058594 -35.417969 L 4.0625 -29.445312 L 1.574219 -11.695312 C 1.160156 -8.378906 0.914062 -6.222656 0.828125 -5.144531 L 0.828125 -4.480469 C 0.828125 -3.402344 0.996094 -2.570312 1.328125 -1.90625 C 1.824219 -1.160156 2.652344 -0.664062 3.816406 -0.332031 C 4.976562 -0.164062 7.132812 0 10.453125 0 L 41.804688 0 L 41.804688 -1.410156 C 41.804688 -3.816406 41.804688 -5.558594 41.640625 -6.554688 C 41.554688 -8.292969 41.222656 -9.539062 40.5625 -10.203125 C 40.0625 -10.867188 39.152344 -11.28125 37.824219 -11.445312 C 36.910156 -11.613281 34.835938 -11.695312 31.601562 -11.695312 L 13.355469 -11.695312 C 13.519531 -12.523438 13.601562 -13.105469 13.601562 -13.355469 C 13.6875 -13.851562 13.769531 -14.183594 13.933594 -14.351562 C 14.101562 -14.515625 14.351562 -14.679688 14.597656 -14.679688 L 33.261719 -14.679688 C 36.164062 -14.679688 38.15625 -14.765625 39.234375 -14.929688 C 40.894531 -15.179688 42.054688 -15.675781 42.800781 -16.339844 C 43.464844 -17.003906 44.042969 -18.164062 44.375 -19.742188 C 44.707031 -20.902344 45.039062 -23.058594 45.453125 -26.378906 L 45.953125 -29.445312 C 46.285156 -32.101562 46.53125 -33.84375 46.617188 -34.835938 C 46.699219 -35.5 46.699219 -36.082031 46.699219 -36.578125 C 46.699219 -38.238281 46.367188 -39.398438 45.539062 -39.980469 C 44.875 -40.5625 43.628906 -40.894531 41.804688 -40.976562 C 40.808594 -41.058594 38.820312 -41.058594 35.832031 -41.058594 Z M 17.917969 -29.445312 L 34.089844 -29.445312 C 34.007812 -28.449219 33.925781 -27.871094 33.84375 -27.539062 C 33.84375 -27.207031 33.757812 -26.957031 33.59375 -26.792969 C 33.425781 -26.625 33.09375 -26.460938 32.597656 -26.378906 L 15.429688 -26.378906 C 15.59375 -27.371094 15.675781 -27.953125 15.675781 -28.203125 C 15.84375 -28.617188 15.925781 -28.78125 16.007812 -28.949219 C 16.175781 -29.113281 16.339844 -29.28125 16.507812 -29.363281 C 16.671875 -29.445312 17.171875 -29.445312 17.917969 -29.445312 Z M 17.917969 -29.445312 "/></g></g></g><g fill="#ff00ff" fill-opacity="1"><g transform="translate(258.33371, 180.977031)"><g><path d="M 15.761719 -58.144531 C 16.589844 -57.480469 17.171875 -57.066406 17.417969 -56.734375 C 17.917969 -56.402344 18.164062 -55.988281 18.332031 -55.65625 C 18.496094 -55.410156 18.496094 -55.078125 18.496094 -54.660156 C 18.496094 -54.414062 18.496094 -53.914062 18.414062 -53.085938 L 16.753906 -41.140625 L 15.011719 -41.140625 C 12.609375 -41.140625 10.867188 -41.140625 9.789062 -40.976562 C 8.378906 -40.808594 7.300781 -40.476562 6.46875 -39.980469 C 5.558594 -39.316406 4.8125 -37.988281 4.3125 -35.914062 C 4.148438 -34.921875 3.816406 -32.765625 3.316406 -29.527344 L 15.097656 -29.527344 L 14.679688 -26.460938 L 13.023438 -14.765625 L 12.609375 -11.777344 C 12.109375 -8.710938 11.777344 -6.636719 11.613281 -5.558594 L 11.613281 -4.230469 C 11.613281 -3.234375 11.777344 -2.40625 12.109375 -1.824219 C 12.609375 -1.078125 13.601562 -0.582031 15.097656 -0.332031 C 16.257812 -0.164062 18.664062 -0.0820312 22.230469 -0.0820312 L 29.695312 -0.0820312 C 33.179688 -0.0820312 35.5 -0.164062 36.664062 -0.332031 C 38.15625 -0.582031 39.234375 -0.996094 39.898438 -1.660156 C 40.5625 -2.324219 41.140625 -3.402344 41.472656 -4.8125 C 41.804688 -5.972656 42.136719 -8.292969 42.632812 -11.777344 L 24.386719 -11.777344 L 24.800781 -14.765625 L 26.460938 -26.460938 L 26.875 -29.527344 L 33.34375 -29.527344 C 36.996094 -29.527344 39.316406 -29.613281 40.476562 -29.695312 C 41.804688 -29.859375 42.71875 -30.191406 43.382812 -30.605469 C 44.375 -31.269531 45.121094 -32.347656 45.539062 -34.007812 C 45.871094 -35.167969 46.285156 -37.492188 46.78125 -41.140625 L 28.535156 -41.140625 L 29.28125 -46.53125 C 29.777344 -50.183594 29.945312 -52.503906 29.945312 -53.582031 C 29.945312 -55.078125 29.695312 -56.070312 29.195312 -56.734375 C 28.699219 -57.316406 27.703125 -57.730469 26.378906 -57.898438 C 25.714844 -58.0625 24.71875 -58.144531 23.390625 -58.144531 Z M 15.761719 -58.144531 "/></g></g></g><g fill="#00ffff" fill-opacity="1"><g transform="translate(45.421158, 180.977031)"><g><path d="M 10.453125 9.871094 L 12.109375 0 L 31.4375 0 C 34.503906 0 36.578125 -0.0820312 37.742188 -0.25 C 39.234375 -0.496094 40.3125 -0.914062 40.976562 -1.574219 C 41.804688 -2.324219 42.386719 -3.566406 42.71875 -5.308594 C 42.964844 -6.46875 43.296875 -8.542969 43.710938 -11.695312 C 45.121094 -21.566406 45.953125 -27.457031 46.203125 -29.445312 C 46.699219 -32.265625 46.949219 -34.089844 46.949219 -35.085938 C 47.03125 -35.75 47.03125 -36.246094 47.03125 -36.664062 C 47.03125 -37.65625 46.949219 -38.488281 46.617188 -39.066406 C 46.117188 -40.230469 44.542969 -40.808594 41.972656 -40.976562 C 40.976562 -41.140625 39.066406 -41.140625 36.246094 -41.140625 L 17.585938 -41.140625 C 14.351562 -41.140625 12.109375 -41.058594 10.949219 -40.894531 C 8.957031 -40.726562 7.546875 -40.144531 6.71875 -39.152344 C 6.136719 -38.402344 5.640625 -37.160156 5.226562 -35.335938 C 5.058594 -34.339844 4.8125 -32.433594 4.394531 -29.445312 L 3.980469 -26.378906 L 0.332031 0 L -1.160156 11.695312 C -1.246094 12.359375 -1.328125 12.773438 -1.410156 13.023438 C -1.492188 13.355469 -1.660156 13.769531 -1.992188 14.101562 C -2.15625 14.433594 -2.488281 14.765625 -2.984375 15.261719 C -3.316406 15.59375 -3.980469 16.089844 -4.976562 16.921875 L -0.996094 16.921875 C 0.164062 16.921875 1.160156 16.839844 1.992188 16.753906 C 3.316406 16.589844 4.394531 16.507812 5.308594 16.175781 C 6.304688 15.84375 7.050781 15.429688 7.632812 15.011719 C 8.542969 14.351562 9.207031 13.4375 9.703125 12.441406 C 10.035156 11.695312 10.285156 10.867188 10.453125 9.871094 Z M 13.6875 -11.695312 L 15.761719 -26.378906 C 15.925781 -27.207031 16.089844 -27.785156 16.175781 -28.035156 C 16.339844 -28.535156 16.421875 -28.78125 16.589844 -28.949219 C 16.839844 -29.195312 17.253906 -29.363281 17.75 -29.363281 C 18.082031 -29.445312 18.664062 -29.445312 19.574219 -29.445312 L 34.421875 -29.445312 L 32.347656 -14.679688 C 32.265625 -13.933594 32.183594 -13.4375 32.101562 -13.105469 C 32.015625 -12.691406 31.851562 -12.359375 31.601562 -12.109375 C 31.4375 -12.027344 31.269531 -11.945312 31.023438 -11.777344 C 30.855469 -11.777344 30.605469 -11.777344 30.277344 -11.695312 Z M 13.6875 -11.695312 "/></g></g></g><g fill="#00ffff" fill-opacity="1"><g transform="translate(93.195703, 180.977031)"><g><path d="M 20.738281 -58.144531 C 16.753906 -58.144531 14.183594 -58.0625 13.023438 -57.8125 C 11.777344 -57.648438 10.78125 -57.234375 10.121094 -56.570312 C 9.457031 -55.90625 8.875 -54.828125 8.460938 -53.335938 C 8.210938 -52.257812 7.796875 -49.933594 7.300781 -46.449219 L 5.472656 -32.929688 L 3.816406 -21.484375 L 1.660156 -6.054688 C 1.574219 -5.390625 1.492188 -4.894531 1.410156 -4.5625 C 1.328125 -4.230469 1.160156 -3.980469 0.996094 -3.648438 C 0.828125 -3.316406 0.414062 -2.820312 -0.164062 -2.238281 C -0.496094 -1.90625 -1.246094 -1.246094 -2.488281 -0.0820312 L 1.410156 -0.0820312 C 5.058594 -0.0820312 7.464844 -0.164062 8.625 -0.332031 C 10.035156 -0.664062 11.03125 -1.160156 11.695312 -1.824219 C 12.359375 -2.570312 12.855469 -3.734375 13.1875 -5.390625 C 13.519531 -6.46875 13.851562 -8.542969 14.265625 -11.613281 L 16.671875 -28.867188 L 18.996094 -45.453125 Z M 20.738281 -58.144531 "/></g></g></g><g fill="#00ffff" fill-opacity="1"><g transform="translate(112.27235, 180.977031)"><g><path d="M 37.824219 -41.140625 L 5.722656 -41.140625 L 5.722656 -39.730469 C 5.722656 -37.574219 5.804688 -35.914062 5.804688 -34.921875 C 5.972656 -33.09375 6.304688 -31.851562 6.800781 -31.105469 C 7.382812 -30.359375 8.378906 -29.859375 9.871094 -29.613281 C 10.867188 -29.527344 12.941406 -29.445312 15.925781 -29.445312 L 34.175781 -29.445312 C 34.089844 -28.535156 34.007812 -27.953125 33.925781 -27.621094 C 33.925781 -27.289062 33.84375 -27.039062 33.675781 -26.875 C 33.511719 -26.707031 33.261719 -26.542969 32.929688 -26.460938 C 32.765625 -26.460938 32.265625 -26.378906 31.601562 -26.378906 L 14.265625 -26.378906 C 11.199219 -26.378906 9.042969 -26.292969 7.878906 -26.128906 C 6.46875 -25.960938 5.390625 -25.464844 4.644531 -24.71875 C 3.980469 -24.054688 3.402344 -22.726562 2.984375 -20.738281 C 2.820312 -19.742188 2.488281 -17.75 2.074219 -14.765625 L 1.574219 -11.695312 C 1.160156 -8.378906 0.914062 -6.136719 0.828125 -4.976562 L 0.828125 -4.480469 C 0.828125 -3.152344 0.996094 -2.238281 1.492188 -1.574219 C 1.992188 -0.996094 2.820312 -0.582031 3.980469 -0.332031 C 5.144531 -0.164062 7.714844 0 11.695312 0 L 29.695312 0 C 33.84375 0 36.496094 -0.164062 37.65625 -0.332031 C 38.820312 -0.582031 39.730469 -0.914062 40.394531 -1.410156 C 41.140625 -1.992188 41.722656 -2.902344 42.054688 -4.0625 C 42.46875 -5.226562 42.964844 -7.714844 43.464844 -11.695312 L 44.625 -20.15625 L 45.953125 -29.445312 C 46.367188 -32.433594 46.617188 -34.421875 46.617188 -35.417969 C 46.699219 -35.914062 46.699219 -36.246094 46.699219 -36.578125 C 46.699219 -38.320312 46.285156 -39.484375 45.453125 -40.0625 C 44.957031 -40.476562 44.128906 -40.726562 42.964844 -40.894531 C 41.972656 -41.058594 40.230469 -41.140625 37.824219 -41.140625 Z M 15.761719 -14.765625 L 32.101562 -14.765625 C 32.015625 -13.851562 31.933594 -13.269531 31.851562 -12.941406 C 31.769531 -12.609375 31.6875 -12.277344 31.519531 -12.109375 C 31.4375 -11.945312 31.269531 -11.863281 30.9375 -11.777344 C 30.773438 -11.777344 30.277344 -11.695312 29.613281 -11.695312 L 13.355469 -11.695312 C 13.519531 -12.359375 13.601562 -12.855469 13.601562 -13.105469 C 13.6875 -13.769531 13.769531 -14.183594 13.933594 -14.351562 C 14.101562 -14.515625 14.265625 -14.679688 14.515625 -14.679688 C 14.679688 -14.765625 15.097656 -14.765625 15.761719 -14.765625 Z M 15.761719 -14.765625 "/></g></g></g><g fill="#00ffff" fill-opacity="1"><g transform="translate(159.715128, 180.977031)"><g><path d="M 4.976562 -29.363281 L 4.5625 -26.378906 L 2.902344 -14.679688 L 2.488281 -11.613281 L 1.660156 -5.804688 C 1.574219 -4.976562 1.492188 -4.394531 1.328125 -4.0625 C 1.246094 -3.734375 1.078125 -3.484375 0.914062 -3.152344 C 0.664062 -2.820312 0.25 -2.40625 -0.414062 -1.824219 C -0.746094 -1.492188 -1.410156 -0.914062 -2.488281 0 L 1.328125 0 C 4.5625 0 6.71875 -0.0820312 7.878906 -0.164062 C 9.703125 -0.414062 10.949219 -0.914062 11.695312 -1.742188 C 12.359375 -2.570312 12.941406 -3.816406 13.269531 -5.558594 C 13.519531 -6.636719 13.851562 -8.625 14.265625 -11.613281 L 14.679688 -14.679688 L 16.339844 -26.378906 C 16.507812 -27.289062 16.589844 -27.871094 16.589844 -28.117188 C 16.753906 -28.617188 17.003906 -28.949219 17.171875 -29.113281 C 17.335938 -29.28125 17.667969 -29.363281 18 -29.363281 C 18.164062 -29.445312 18.414062 -29.445312 18.746094 -29.445312 C 19.078125 -29.445312 19.410156 -29.445312 19.824219 -29.363281 L 35.003906 -29.363281 L 34.589844 -26.378906 L 32.929688 -14.679688 L 32.515625 -11.613281 L 30.855469 0 C 35.003906 0 37.65625 -0.164062 38.820312 -0.332031 C 40.230469 -0.664062 41.222656 -1.160156 41.886719 -1.90625 C 42.386719 -2.570312 42.800781 -3.484375 43.132812 -4.8125 C 43.464844 -5.890625 43.796875 -8.128906 44.292969 -11.613281 L 44.707031 -14.679688 L 46.367188 -26.378906 L 46.78125 -29.363281 C 47.28125 -33.011719 47.527344 -35.417969 47.527344 -36.496094 C 47.527344 -38.320312 47.113281 -39.484375 46.285156 -40.0625 C 45.621094 -40.5625 44.375 -40.894531 42.632812 -40.976562 C 41.804688 -41.058594 40.644531 -41.058594 39.152344 -41.058594 L 15.84375 -41.058594 C 13.4375 -41.058594 11.695312 -40.976562 10.617188 -40.808594 C 9.125 -40.644531 7.960938 -40.0625 7.300781 -39.152344 C 6.71875 -38.488281 6.222656 -37.242188 5.890625 -35.585938 C 5.722656 -34.589844 5.390625 -32.515625 4.976562 -29.363281 Z M 4.976562 -29.363281 "/></g></g></g><g fill="#00ffff" fill-opacity="1"><g transform="translate(207.987323, 180.977031)"><g><path d="M 17.75 -41.058594 C 13.933594 -41.058594 11.445312 -41.058594 10.285156 -40.894531 C 8.792969 -40.726562 7.632812 -40.230469 6.800781 -39.484375 C 6.054688 -38.734375 5.472656 -37.410156 5.058594 -35.417969 L 4.0625 -29.445312 L 1.574219 -11.695312 C 1.160156 -8.378906 0.914062 -6.222656 0.828125 -5.144531 L 0.828125 -4.480469 C 0.828125 -3.402344 0.996094 -2.570312 1.328125 -1.90625 C 1.824219 -1.160156 2.652344 -0.664062 3.816406 -0.332031 C 4.976562 -0.164062 7.132812 0 10.453125 0 L 41.804688 0 L 41.804688 -1.410156 C 41.804688 -3.816406 41.804688 -5.558594 41.640625 -6.554688 C 41.554688 -8.292969 41.222656 -9.539062 40.5625 -10.203125 C 40.0625 -10.867188 39.152344 -11.28125 37.824219 -11.445312 C 36.910156 -11.613281 34.835938 -11.695312 31.601562 -11.695312 L 13.355469 -11.695312 C 13.519531 -12.523438 13.601562 -13.105469 13.601562 -13.355469 C 13.6875 -13.851562 13.769531 -14.183594 13.933594 -14.351562 C 14.101562 -14.515625 14.351562 -14.679688 14.597656 -14.679688 L 33.261719 -14.679688 C 36.164062 -14.679688 38.15625 -14.765625 39.234375 -14.929688 C 40.894531 -15.179688 42.054688 -15.675781 42.800781 -16.339844 C 43.464844 -17.003906 44.042969 -18.164062 44.375 -19.742188 C 44.707031 -20.902344 45.039062 -23.058594 45.453125 -26.378906 L 45.953125 -29.445312 C 46.285156 -32.101562 46.53125 -33.84375 46.617188 -34.835938 C 46.699219 -35.5 46.699219 -36.082031 46.699219 -36.578125 C 46.699219 -38.238281 46.367188 -39.398438 45.539062 -39.980469 C 44.875 -40.5625 43.628906 -40.894531 41.804688 -40.976562 C 40.808594 -41.058594 38.820312 -41.058594 35.832031 -41.058594 Z M 17.917969 -29.445312 L 34.089844 -29.445312 C 34.007812 -28.449219 33.925781 -27.871094 33.84375 -27.539062 C 33.84375 -27.207031 33.757812 -26.957031 33.59375 -26.792969 C 33.425781 -26.625 33.09375 -26.460938 32.597656 -26.378906 L 15.429688 -26.378906 C 15.59375 -27.371094 15.675781 -27.953125 15.675781 -28.203125 C 15.84375 -28.617188 15.925781 -28.78125 16.007812 -28.949219 C 16.175781 -29.113281 16.339844 -29.28125 16.507812 -29.363281 C 16.671875 -29.445312 17.171875 -29.445312 17.917969 -29.445312 Z M 17.917969 -29.445312 "/></g></g></g><g fill="#00ffff" fill-opacity="1"><g transform="translate(254.185968, 180.977031)"><g><path d="M 15.761719 -58.144531 C 16.589844 -57.480469 17.171875 -57.066406 17.417969 -56.734375 C 17.917969 -56.402344 18.164062 -55.988281 18.332031 -55.65625 C 18.496094 -55.410156 18.496094 -55.078125 18.496094 -54.660156 C 18.496094 -54.414062 18.496094 -53.914062 18.414062 -53.085938 L 16.753906 -41.140625 L 15.011719 -41.140625 C 12.609375 -41.140625 10.867188 -41.140625 9.789062 -40.976562 C 8.378906 -40.808594 7.300781 -40.476562 6.46875 -39.980469 C 5.558594 -39.316406 4.8125 -37.988281 4.3125 -35.914062 C 4.148438 -34.921875 3.816406 -32.765625 3.316406 -29.527344 L 15.097656 -29.527344 L 14.679688 -26.460938 L 13.023438 -14.765625 L 12.609375 -11.777344 C 12.109375 -8.710938 11.777344 -6.636719 11.613281 -5.558594 L 11.613281 -4.230469 C 11.613281 -3.234375 11.777344 -2.40625 12.109375 -1.824219 C 12.609375 -1.078125 13.601562 -0.582031 15.097656 -0.332031 C 16.257812 -0.164062 18.664062 -0.0820312 22.230469 -0.0820312 L 29.695312 -0.0820312 C 33.179688 -0.0820312 35.5 -0.164062 36.664062 -0.332031 C 38.15625 -0.582031 39.234375 -0.996094 39.898438 -1.660156 C 40.5625 -2.324219 41.140625 -3.402344 41.472656 -4.8125 C 41.804688 -5.972656 42.136719 -8.292969 42.632812 -11.777344 L 24.386719 -11.777344 L 24.800781 -14.765625 L 26.460938 -26.460938 L 26.875 -29.527344 L 33.34375 -29.527344 C 36.996094 -29.527344 39.316406 -29.613281 40.476562 -29.695312 C 41.804688 -29.859375 42.71875 -30.191406 43.382812 -30.605469 C 44.375 -31.269531 45.121094 -32.347656 45.539062 -34.007812 C 45.871094 -35.167969 46.285156 -37.492188 46.78125 -41.140625 L 28.535156 -41.140625 L 29.28125 -46.53125 C 29.777344 -50.183594 29.945312 -52.503906 29.945312 -53.582031 C 29.945312 -55.078125 29.695312 -56.070312 29.195312 -56.734375 C 28.699219 -57.316406 27.703125 -57.730469 26.378906 -57.898438 C 25.714844 -58.0625 24.71875 -58.144531 23.390625 -58.144531 Z M 15.761719 -58.144531 "/></g></g></g><g fill="#000000" fill-opacity="1"><g transform="translate(47.495029, 180.977031)"><g><path d="M 10.453125 9.871094 L 12.109375 0 L 31.4375 0 C 34.503906 0 36.578125 -0.0820312 37.742188 -0.25 C 39.234375 -0.496094 40.3125 -0.914062 40.976562 -1.574219 C 41.804688 -2.324219 42.386719 -3.566406 42.71875 -5.308594 C 42.964844 -6.46875 43.296875 -8.542969 43.710938 -11.695312 C 45.121094 -21.566406 45.953125 -27.457031 46.203125 -29.445312 C 46.699219 -32.265625 46.949219 -34.089844 46.949219 -35.085938 C 47.03125 -35.75 47.03125 -36.246094 47.03125 -36.664062 C 47.03125 -37.65625 46.949219 -38.488281 46.617188 -39.066406 C 46.117188 -40.230469 44.542969 -40.808594 41.972656 -40.976562 C 40.976562 -41.140625 39.066406 -41.140625 36.246094 -41.140625 L 17.585938 -41.140625 C 14.351562 -41.140625 12.109375 -41.058594 10.949219 -40.894531 C 8.957031 -40.726562 7.546875 -40.144531 6.71875 -39.152344 C 6.136719 -38.402344 5.640625 -37.160156 5.226562 -35.335938 C 5.058594 -34.339844 4.8125 -32.433594 4.394531 -29.445312 L 3.980469 -26.378906 L 0.332031 0 L -1.160156 11.695312 C -1.246094 12.359375 -1.328125 12.773438 -1.410156 13.023438 C -1.492188 13.355469 -1.660156 13.769531 -1.992188 14.101562 C -2.15625 14.433594 -2.488281 14.765625 -2.984375 15.261719 C -3.316406 15.59375 -3.980469 16.089844 -4.976562 16.921875 L -0.996094 16.921875 C 0.164062 16.921875 1.160156 16.839844 1.992188 16.753906 C 3.316406 16.589844 4.394531 16.507812 5.308594 16.175781 C 6.304688 15.84375 7.050781 15.429688 7.632812 15.011719 C 8.542969 14.351562 9.207031 13.4375 9.703125 12.441406 C 10.035156 11.695312 10.285156 10.867188 10.453125 9.871094 Z M 13.6875 -11.695312 L 15.761719 -26.378906 C 15.925781 -27.207031 16.089844 -27.785156 16.175781 -28.035156 C 16.339844 -28.535156 16.421875 -28.78125 16.589844 -28.949219 C 16.839844 -29.195312 17.253906 -29.363281 17.75 -29.363281 C 18.082031 -29.445312 18.664062 -29.445312 19.574219 -29.445312 L 34.421875 -29.445312 L 32.347656 -14.679688 C 32.265625 -13.933594 32.183594 -13.4375 32.101562 -13.105469 C 32.015625 -12.691406 31.851562 -12.359375 31.601562 -12.109375 C 31.4375 -12.027344 31.269531 -11.945312 31.023438 -11.777344 C 30.855469 -11.777344 30.605469 -11.777344 30.277344 -11.695312 Z M 13.6875 -11.695312 "/></g></g></g><g fill="#000000" fill-opacity="1"><g transform="translate(95.269574, 180.977031)"><g><path d="M 20.738281 -58.144531 C 16.753906 -58.144531 14.183594 -58.0625 13.023438 -57.8125 C 11.777344 -57.648438 10.78125 -57.234375 10.121094 -56.570312 C 9.457031 -55.90625 8.875 -54.828125 8.460938 -53.335938 C 8.210938 -52.257812 7.796875 -49.933594 7.300781 -46.449219 L 5.472656 -32.929688 L 3.816406 -21.484375 L 1.660156 -6.054688 C 1.574219 -5.390625 1.492188 -4.894531 1.410156 -4.5625 C 1.328125 -4.230469 1.160156 -3.980469 0.996094 -3.648438 C 0.828125 -3.316406 0.414062 -2.820312 -0.164062 -2.238281 C -0.496094 -1.90625 -1.246094 -1.246094 -2.488281 -0.0820312 L 1.410156 -0.0820312 C 5.058594 -0.0820312 7.464844 -0.164062 8.625 -0.332031 C 10.035156 -0.664062 11.03125 -1.160156 11.695312 -1.824219 C 12.359375 -2.570312 12.855469 -3.734375 13.1875 -5.390625 C 13.519531 -6.46875 13.851562 -8.542969 14.265625 -11.613281 L 16.671875 -28.867188 L 18.996094 -45.453125 Z M 20.738281 -58.144531 "/></g></g></g><g fill="#000000" fill-opacity="1"><g transform="translate(114.346221, 180.977031)"><g><path d="M 37.824219 -41.140625 L 5.722656 -41.140625 L 5.722656 -39.730469 C 5.722656 -37.574219 5.804688 -35.914062 5.804688 -34.921875 C 5.972656 -33.09375 6.304688 -31.851562 6.800781 -31.105469 C 7.382812 -30.359375 8.378906 -29.859375 9.871094 -29.613281 C 10.867188 -29.527344 12.941406 -29.445312 15.925781 -29.445312 L 34.175781 -29.445312 C 34.089844 -28.535156 34.007812 -27.953125 33.925781 -27.621094 C 33.925781 -27.289062 33.84375 -27.039062 33.675781 -26.875 C 33.511719 -26.707031 33.261719 -26.542969 32.929688 -26.460938 C 32.765625 -26.460938 32.265625 -26.378906 31.601562 -26.378906 L 14.265625 -26.378906 C 11.199219 -26.378906 9.042969 -26.292969 7.878906 -26.128906 C 6.46875 -25.960938 5.390625 -25.464844 4.644531 -24.71875 C 3.980469 -24.054688 3.402344 -22.726562 2.984375 -20.738281 C 2.820312 -19.742188 2.488281 -17.75 2.074219 -14.765625 L 1.574219 -11.695312 C 1.160156 -8.378906 0.914062 -6.136719 0.828125 -4.976562 L 0.828125 -4.480469 C 0.828125 -3.152344 0.996094 -2.238281 1.492188 -1.574219 C 1.992188 -0.996094 2.820312 -0.582031 3.980469 -0.332031 C 5.144531 -0.164062 7.714844 0 11.695312 0 L 29.695312 0 C 33.84375 0 36.496094 -0.164062 37.65625 -0.332031 C 38.820312 -0.582031 39.730469 -0.914062 40.394531 -1.410156 C 41.140625 -1.992188 41.722656 -2.902344 42.054688 -4.0625 C 42.46875 -5.226562 42.964844 -7.714844 43.464844 -11.695312 L 44.625 -20.15625 L 45.953125 -29.445312 C 46.367188 -32.433594 46.617188 -34.421875 46.617188 -35.417969 C 46.699219 -35.914062 46.699219 -36.246094 46.699219 -36.578125 C 46.699219 -38.320312 46.285156 -39.484375 45.453125 -40.0625 C 44.957031 -40.476562 44.128906 -40.726562 42.964844 -40.894531 C 41.972656 -41.058594 40.230469 -41.140625 37.824219 -41.140625 Z M 15.761719 -14.765625 L 32.101562 -14.765625 C 32.015625 -13.851562 31.933594 -13.269531 31.851562 -12.941406 C 31.769531 -12.609375 31.6875 -12.277344 31.519531 -12.109375 C 31.4375 -11.945312 31.269531 -11.863281 30.9375 -11.777344 C 30.773438 -11.777344 30.277344 -11.695312 29.613281 -11.695312 L 13.355469 -11.695312 C 13.519531 -12.359375 13.601562 -12.855469 13.601562 -13.105469 C 13.6875 -13.769531 13.769531 -14.183594 13.933594 -14.351562 C 14.101562 -14.515625 14.265625 -14.679688 14.515625 -14.679688 C 14.679688 -14.765625 15.097656 -14.765625 15.761719 -14.765625 Z M 15.761719 -14.765625 "/></g></g></g><g fill="#000000" fill-opacity="1"><g transform="translate(161.788999, 180.977031)"><g><path d="M 4.976562 -29.363281 L 4.5625 -26.378906 L 2.902344 -14.679688 L 2.488281 -11.613281 L 1.660156 -5.804688 C 1.574219 -4.976562 1.492188 -4.394531 1.328125 -4.0625 C 1.246094 -3.734375 1.078125 -3.484375 0.914062 -3.152344 C 0.664062 -2.820312 0.25 -2.40625 -0.414062 -1.824219 C -0.746094 -1.492188 -1.410156 -0.914062 -2.488281 0 L 1.328125 0 C 4.5625 0 6.71875 -0.0820312 7.878906 -0.164062 C 9.703125 -0.414062 10.949219 -0.914062 11.695312 -1.742188 C 12.359375 -2.570312 12.941406 -3.816406 13.269531 -5.558594 C 13.519531 -6.636719 13.851562 -8.625 14.265625 -11.613281 L 14.679688 -14.679688 L 16.339844 -26.378906 C 16.507812 -27.289062 16.589844 -27.871094 16.589844 -28.117188 C 16.753906 -28.617188 17.003906 -28.949219 17.171875 -29.113281 C 17.335938 -29.28125 17.667969 -29.363281 18 -29.363281 C 18.164062 -29.445312 18.414062 -29.445312 18.746094 -29.445312 C 19.078125 -29.445312 19.410156 -29.445312 19.824219 -29.363281 L 35.003906 -29.363281 L 34.589844 -26.378906 L 32.929688 -14.679688 L 32.515625 -11.613281 L 30.855469 0 C 35.003906 0 37.65625 -0.164062 38.820312 -0.332031 C 40.230469 -0.664062 41.222656 -1.160156 41.886719 -1.90625 C 42.386719 -2.570312 42.800781 -3.484375 43.132812 -4.8125 C 43.464844 -5.890625 43.796875 -8.128906 44.292969 -11.613281 L 44.707031 -14.679688 L 46.367188 -26.378906 L 46.78125 -29.363281 C 47.28125 -33.011719 47.527344 -35.417969 47.527344 -36.496094 C 47.527344 -38.320312 47.113281 -39.484375 46.285156 -40.0625 C 45.621094 -40.5625 44.375 -40.894531 42.632812 -40.976562 C 41.804688 -41.058594 40.644531 -41.058594 39.152344 -41.058594 L 15.84375 -41.058594 C 13.4375 -41.058594 11.695312 -40.976562 10.617188 -40.808594 C 9.125 -40.644531 7.960938 -40.0625 7.300781 -39.152344 C 6.71875 -38.488281 6.222656 -37.242188 5.890625 -35.585938 C 5.722656 -34.589844 5.390625 -32.515625 4.976562 -29.363281 Z M 4.976562 -29.363281 "/></g></g></g><g fill="#000000" fill-opacity="1"><g transform="translate(210.061194, 180.977031)"><g><path d="M 17.75 -41.058594 C 13.933594 -41.058594 11.445312 -41.058594 10.285156 -40.894531 C 8.792969 -40.726562 7.632812 -40.230469 6.800781 -39.484375 C 6.054688 -38.734375 5.472656 -37.410156 5.058594 -35.417969 L 4.0625 -29.445312 L 1.574219 -11.695312 C 1.160156 -8.378906 0.914062 -6.222656 0.828125 -5.144531 L 0.828125 -4.480469 C 0.828125 -3.402344 0.996094 -2.570312 1.328125 -1.90625 C 1.824219 -1.160156 2.652344 -0.664062 3.816406 -0.332031 C 4.976562 -0.164062 7.132812 0 10.453125 0 L 41.804688 0 L 41.804688 -1.410156 C 41.804688 -3.816406 41.804688 -5.558594 41.640625 -6.554688 C 41.554688 -8.292969 41.222656 -9.539062 40.5625 -10.203125 C 40.0625 -10.867188 39.152344 -11.28125 37.824219 -11.445312 C 36.910156 -11.613281 34.835938 -11.695312 31.601562 -11.695312 L 13.355469 -11.695312 C 13.519531 -12.523438 13.601562 -13.105469 13.601562 -13.355469 C 13.6875 -13.851562 13.769531 -14.183594 13.933594 -14.351562 C 14.101562 -14.515625 14.351562 -14.679688 14.597656 -14.679688 L 33.261719 -14.679688 C 36.164062 -14.679688 38.15625 -14.765625 39.234375 -14.929688 C 40.894531 -15.179688 42.054688 -15.675781 42.800781 -16.339844 C 43.464844 -17.003906 44.042969 -18.164062 44.375 -19.742188 C 44.707031 -20.902344 45.039062 -23.058594 45.453125 -26.378906 L 45.953125 -29.445312 C 46.285156 -32.101562 46.53125 -33.84375 46.617188 -34.835938 C 46.699219 -35.5 46.699219 -36.082031 46.699219 -36.578125 C 46.699219 -38.238281 46.367188 -39.398438 45.539062 -39.980469 C 44.875 -40.5625 43.628906 -40.894531 41.804688 -40.976562 C 40.808594 -41.058594 38.820312 -41.058594 35.832031 -41.058594 Z M 17.917969 -29.445312 L 34.089844 -29.445312 C 34.007812 -28.449219 33.925781 -27.871094 33.84375 -27.539062 C 33.84375 -27.207031 33.757812 -26.957031 33.59375 -26.792969 C 33.425781 -26.625 33.09375 -26.460938 32.597656 -26.378906 L 15.429688 -26.378906 C 15.59375 -27.371094 15.675781 -27.953125 15.675781 -28.203125 C 15.84375 -28.617188 15.925781 -28.78125 16.007812 -28.949219 C 16.175781 -29.113281 16.339844 -29.28125 16.507812 -29.363281 C 16.671875 -29.445312 17.171875 -29.445312 17.917969 -29.445312 Z M 17.917969 -29.445312 "/></g></g></g><g fill="#000000" fill-opacity="1"><g transform="translate(256.259839, 180.977031)"><g><path d="M 15.761719 -58.144531 C 16.589844 -57.480469 17.171875 -57.066406 17.417969 -56.734375 C 17.917969 -56.402344 18.164062 -55.988281 18.332031 -55.65625 C 18.496094 -55.410156 18.496094 -55.078125 18.496094 -54.660156 C 18.496094 -54.414062 18.496094 -53.914062 18.414062 -53.085938 L 16.753906 -41.140625 L 15.011719 -41.140625 C 12.609375 -41.140625 10.867188 -41.140625 9.789062 -40.976562 C 8.378906 -40.808594 7.300781 -40.476562 6.46875 -39.980469 C 5.558594 -39.316406 4.8125 -37.988281 4.3125 -35.914062 C 4.148438 -34.921875 3.816406 -32.765625 3.316406 -29.527344 L 15.097656 -29.527344 L 14.679688 -26.460938 L 13.023438 -14.765625 L 12.609375 -11.777344 C 12.109375 -8.710938 11.777344 -6.636719 11.613281 -5.558594 L 11.613281 -4.230469 C 11.613281 -3.234375 11.777344 -2.40625 12.109375 -1.824219 C 12.609375 -1.078125 13.601562 -0.582031 15.097656 -0.332031 C 16.257812 -0.164062 18.664062 -0.0820312 22.230469 -0.0820312 L 29.695312 -0.0820312 C 33.179688 -0.0820312 35.5 -0.164062 36.664062 -0.332031 C 38.15625 -0.582031 39.234375 -0.996094 39.898438 -1.660156 C 40.5625 -2.324219 41.140625 -3.402344 41.472656 -4.8125 C 41.804688 -5.972656 42.136719 -8.292969 42.632812 -11.777344 L 24.386719 -11.777344 L 24.800781 -14.765625 L 26.460938 -26.460938 L 26.875 -29.527344 L 33.34375 -29.527344 C 36.996094 -29.527344 39.316406 -29.613281 40.476562 -29.695312 C 41.804688 -29.859375 42.71875 -30.191406 43.382812 -30.605469 C 44.375 -31.269531 45.121094 -32.347656 45.539062 -34.007812 C 45.871094 -35.167969 46.285156 -37.492188 46.78125 -41.140625 L 28.535156 -41.140625 L 29.28125 -46.53125 C 29.777344 -50.183594 29.945312 -52.503906 29.945312 -53.582031 C 29.945312 -55.078125 29.695312 -56.070312 29.195312 -56.734375 C 28.699219 -57.316406 27.703125 -57.730469 26.378906 -57.898438 C 25.714844 -58.0625 24.71875 -58.144531 23.390625 -58.144531 Z M 15.761719 -58.144531 "/></g></g></g><g fill="#ff00ff" fill-opacity="1"><g transform="translate(304.69388, 180.977031)"><g/></g></g><g fill="#00ffff" fill-opacity="1"><g transform="translate(300.546138, 180.977031)"><g/></g></g><g fill="#000000" fill-opacity="1"><g transform="translate(302.620009, 180.977031)"><g/></g></g><g fill="#ff00ff" fill-opacity="1"><g transform="translate(48.562748, 242.57099)"><g><path d="M 3.980469 -29.445312 C 3.648438 -26.625 3.234375 -23.804688 2.820312 -20.902344 C 2.238281 -16.671875 1.824219 -13.601562 1.492188 -11.695312 C 1.160156 -9.042969 0.996094 -7.214844 0.828125 -6.222656 C 0.828125 -5.640625 0.746094 -5.058594 0.746094 -4.5625 C 0.746094 -3.484375 0.914062 -2.652344 1.246094 -2.074219 C 1.742188 -1.160156 2.820312 -0.582031 4.480469 -0.25 C 5.640625 -0.164062 7.714844 -0.0820312 10.867188 -0.0820312 L 29.945312 -0.0820312 C 29.777344 1.574219 29.613281 2.652344 29.445312 3.152344 C 29.28125 3.816406 29.113281 4.3125 28.78125 4.644531 C 28.535156 4.894531 28.117188 5.058594 27.539062 5.226562 C 27.039062 5.226562 26.046875 5.308594 24.550781 5.308594 L 10.203125 5.308594 C 7.714844 5.308594 5.890625 5.308594 4.8125 5.472656 C 3.402344 5.640625 2.324219 5.890625 1.574219 6.386719 C 0.582031 6.96875 -0.25 8.210938 -0.828125 10.035156 C -1.160156 11.113281 -1.742188 13.4375 -2.488281 17.003906 L 27.539062 17.003906 C 31.519531 17.003906 34.089844 16.839844 35.253906 16.671875 C 36.746094 16.421875 37.742188 15.925781 38.402344 15.179688 C 39.152344 14.351562 39.730469 13.105469 40.0625 11.363281 C 40.3125 10.203125 40.644531 8.210938 40.976562 5.308594 L 41.722656 -0.0820312 L 43.382812 -11.695312 L 44.375 -19.078125 L 45.871094 -29.445312 C 46.117188 -31.601562 46.285156 -33.179688 46.285156 -34.007812 L 46.285156 -37.242188 C 46.203125 -38.488281 45.871094 -39.316406 45.207031 -39.8125 C 44.875 -40.230469 44.292969 -40.476562 43.546875 -40.644531 C 43.050781 -40.808594 42.300781 -40.976562 41.390625 -40.976562 C 40.476562 -41.140625 38.570312 -41.140625 35.667969 -41.140625 L 17.417969 -41.140625 C 14.101562 -41.140625 11.863281 -41.140625 10.699219 -40.976562 C 8.875 -40.808594 7.632812 -40.3125 6.800781 -39.566406 C 6.136719 -38.902344 5.558594 -37.65625 5.058594 -35.914062 C 4.894531 -34.921875 4.480469 -32.765625 3.980469 -29.445312 Z M 18.746094 -29.445312 L 34.089844 -29.445312 L 32.015625 -14.679688 C 31.851562 -13.769531 31.769531 -13.105469 31.601562 -12.773438 C 31.519531 -12.441406 31.4375 -12.277344 31.1875 -12.109375 C 31.023438 -11.945312 30.691406 -11.863281 30.277344 -11.777344 C 29.945312 -11.777344 29.363281 -11.695312 28.449219 -11.695312 L 13.355469 -11.695312 L 14.351562 -19.328125 L 15.34375 -26.378906 C 15.511719 -27.207031 15.59375 -27.703125 15.59375 -27.953125 C 15.761719 -28.449219 15.84375 -28.78125 16.007812 -28.949219 C 16.175781 -29.195312 16.507812 -29.363281 16.839844 -29.363281 C 17.171875 -29.445312 17.75 -29.445312 18.746094 -29.445312 Z M 18.746094 -29.445312 "/></g></g></g><g fill="#ff00ff" fill-opacity="1"><g transform="translate(95.673759, 242.57099)"><g><path d="M 37.824219 -41.140625 L 5.722656 -41.140625 L 5.722656 -39.730469 C 5.722656 -37.574219 5.804688 -35.914062 5.804688 -34.921875 C 5.972656 -33.09375 6.304688 -31.851562 6.800781 -31.105469 C 7.382812 -30.359375 8.378906 -29.859375 9.871094 -29.613281 C 10.867188 -29.527344 12.941406 -29.445312 15.925781 -29.445312 L 34.175781 -29.445312 C 34.089844 -28.535156 34.007812 -27.953125 33.925781 -27.621094 C 33.925781 -27.289062 33.84375 -27.039062 33.675781 -26.875 C 33.511719 -26.707031 33.261719 -26.542969 32.929688 -26.460938 C 32.765625 -26.460938 32.265625 -26.378906 31.601562 -26.378906 L 14.265625 -26.378906 C 11.199219 -26.378906 9.042969 -26.292969 7.878906 -26.128906 C 6.46875 -25.960938 5.390625 -25.464844 4.644531 -24.71875 C 3.980469 -24.054688 3.402344 -22.726562 2.984375 -20.738281 C 2.820312 -19.742188 2.488281 -17.75 2.074219 -14.765625 L 1.574219 -11.695312 C 1.160156 -8.378906 0.914062 -6.136719 0.828125 -4.976562 L 0.828125 -4.480469 C 0.828125 -3.152344 0.996094 -2.238281 1.492188 -1.574219 C 1.992188 -0.996094 2.820312 -0.582031 3.980469 -0.332031 C 5.144531 -0.164062 7.714844 0 11.695312 0 L 29.695312 0 C 33.84375 0 36.496094 -0.164062 37.65625 -0.332031 C 38.820312 -0.582031 39.730469 -0.914062 40.394531 -1.410156 C 41.140625 -1.992188 41.722656 -2.902344 42.054688 -4.0625 C 42.46875 -5.226562 42.964844 -7.714844 43.464844 -11.695312 L 44.625 -20.15625 L 45.953125 -29.445312 C 46.367188 -32.433594 46.617188 -34.421875 46.617188 -35.417969 C 46.699219 -35.914062 46.699219 -36.246094 46.699219 -36.578125 C 46.699219 -38.320312 46.285156 -39.484375 45.453125 -40.0625 C 44.957031 -40.476562 44.128906 -40.726562 42.964844 -40.894531 C 41.972656 -41.058594 40.230469 -41.140625 37.824219 -41.140625 Z M 15.761719 -14.765625 L 32.101562 -14.765625 C 32.015625 -13.851562 31.933594 -13.269531 31.851562 -12.941406 C 31.769531 -12.609375 31.6875 -12.277344 31.519531 -12.109375 C 31.4375 -11.945312 31.269531 -11.863281 30.9375 -11.777344 C 30.773438 -11.777344 30.277344 -11.695312 29.613281 -11.695312 L 13.355469 -11.695312 C 13.519531 -12.359375 13.601562 -12.855469 13.601562 -13.105469 C 13.6875 -13.769531 13.769531 -14.183594 13.933594 -14.351562 C 14.101562 -14.515625 14.265625 -14.679688 14.515625 -14.679688 C 14.679688 -14.765625 15.097656 -14.765625 15.761719 -14.765625 Z M 15.761719 -14.765625 "/></g></g></g><g fill="#ff00ff" fill-opacity="1"><g transform="translate(143.116537, 242.57099)"><g><path d="M 37.410156 -50.929688 L 35.75 -41.058594 L 16.421875 -41.058594 C 13.4375 -41.058594 11.28125 -40.976562 10.121094 -40.808594 C 8.625 -40.644531 7.546875 -40.230469 6.882812 -39.566406 C 6.136719 -38.902344 5.558594 -37.574219 5.144531 -35.75 C 4.894531 -34.753906 4.5625 -32.597656 4.148438 -29.445312 C 3.980469 -28.035156 3.648438 -25.296875 2.984375 -21.152344 C 2.40625 -17.085938 1.992188 -13.933594 1.660156 -11.695312 C 1.246094 -8.957031 0.996094 -7.050781 0.914062 -6.054688 C 0.914062 -5.472656 0.828125 -4.976562 0.828125 -4.480469 C 0.828125 -3.484375 0.996094 -2.652344 1.246094 -2.074219 C 1.824219 -0.914062 3.402344 -0.25 5.890625 -0.0820312 C 6.882812 -0.0820312 8.792969 0 11.53125 0 L 30.191406 0 C 33.511719 0 35.75 -0.0820312 36.828125 -0.164062 C 38.984375 -0.414062 40.394531 -0.996094 41.140625 -1.992188 C 41.804688 -2.820312 42.21875 -4.0625 42.550781 -5.804688 C 42.800781 -6.800781 43.132812 -8.792969 43.464844 -11.695312 L 43.878906 -14.765625 L 47.527344 -41.058594 L 49.019531 -52.753906 C 49.1875 -53.417969 49.269531 -53.914062 49.269531 -54.164062 C 49.4375 -54.578125 49.601562 -54.910156 49.851562 -55.242188 C 50.101562 -55.574219 50.429688 -55.90625 50.847656 -56.320312 C 51.261719 -56.652344 51.925781 -57.234375 52.835938 -58.0625 L 48.855469 -58.0625 C 47.777344 -58.0625 46.78125 -57.980469 45.871094 -57.898438 C 44.625 -57.730469 43.546875 -57.566406 42.550781 -57.234375 C 41.640625 -56.984375 40.808594 -56.570312 40.144531 -56.070312 C 39.316406 -55.492188 38.652344 -54.660156 38.15625 -53.582031 C 37.824219 -52.835938 37.574219 -51.925781 37.410156 -50.929688 Z M 19.328125 -29.445312 L 34.089844 -29.445312 L 32.101562 -14.765625 C 31.933594 -13.933594 31.851562 -13.355469 31.6875 -13.023438 C 31.601562 -12.691406 31.4375 -12.359375 31.269531 -12.191406 C 31.105469 -11.945312 30.691406 -11.777344 30.109375 -11.695312 L 13.4375 -11.695312 L 15.511719 -26.378906 C 15.675781 -27.207031 15.761719 -27.703125 15.761719 -27.953125 C 15.925781 -28.449219 16.089844 -28.78125 16.257812 -28.949219 C 16.421875 -29.113281 16.589844 -29.28125 16.839844 -29.28125 C 17.003906 -29.363281 17.253906 -29.363281 17.585938 -29.363281 C 18.414062 -29.445312 18.996094 -29.445312 19.328125 -29.445312 Z M 19.328125 -29.445312 "/></g></g></g><g fill="#ff00ff" fill-opacity="1"><g transform="translate(190.891082, 242.57099)"><g><path d="M 3.980469 -29.445312 C 3.648438 -26.625 3.234375 -23.804688 2.820312 -20.902344 C 2.238281 -16.671875 1.824219 -13.601562 1.492188 -11.695312 C 1.160156 -9.042969 0.996094 -7.214844 0.828125 -6.222656 C 0.828125 -5.640625 0.746094 -5.058594 0.746094 -4.5625 C 0.746094 -3.484375 0.914062 -2.652344 1.246094 -2.074219 C 1.742188 -1.160156 2.820312 -0.582031 4.480469 -0.25 C 5.640625 -0.164062 7.714844 -0.0820312 10.867188 -0.0820312 L 29.945312 -0.0820312 C 29.777344 1.574219 29.613281 2.652344 29.445312 3.152344 C 29.28125 3.816406 29.113281 4.3125 28.78125 4.644531 C 28.535156 4.894531 28.117188 5.058594 27.539062 5.226562 C 27.039062 5.226562 26.046875 5.308594 24.550781 5.308594 L 10.203125 5.308594 C 7.714844 5.308594 5.890625 5.308594 4.8125 5.472656 C 3.402344 5.640625 2.324219 5.890625 1.574219 6.386719 C 0.582031 6.96875 -0.25 8.210938 -0.828125 10.035156 C -1.160156 11.113281 -1.742188 13.4375 -2.488281 17.003906 L 27.539062 17.003906 C 31.519531 17.003906 34.089844 16.839844 35.253906 16.671875 C 36.746094 16.421875 37.742188 15.925781 38.402344 15.179688 C 39.152344 14.351562 39.730469 13.105469 40.0625 11.363281 C 40.3125 10.203125 40.644531 8.210938 40.976562 5.308594 L 41.722656 -0.0820312 L 43.382812 -11.695312 L 44.375 -19.078125 L 45.871094 -29.445312 C 46.117188 -31.601562 46.285156 -33.179688 46.285156 -34.007812 L 46.285156 -37.242188 C 46.203125 -38.488281 45.871094 -39.316406 45.207031 -39.8125 C 44.875 -40.230469 44.292969 -40.476562 43.546875 -40.644531 C 43.050781 -40.808594 42.300781 -40.976562 41.390625 -40.976562 C 40.476562 -41.140625 38.570312 -41.140625 35.667969 -41.140625 L 17.417969 -41.140625 C 14.101562 -41.140625 11.863281 -41.140625 10.699219 -40.976562 C 8.875 -40.808594 7.632812 -40.3125 6.800781 -39.566406 C 6.136719 -38.902344 5.558594 -37.65625 5.058594 -35.914062 C 4.894531 -34.921875 4.480469 -32.765625 3.980469 -29.445312 Z M 18.746094 -29.445312 L 34.089844 -29.445312 L 32.015625 -14.679688 C 31.851562 -13.769531 31.769531 -13.105469 31.601562 -12.773438 C 31.519531 -12.441406 31.4375 -12.277344 31.1875 -12.109375 C 31.023438 -11.945312 30.691406 -11.863281 30.277344 -11.777344 C 29.945312 -11.777344 29.363281 -11.695312 28.449219 -11.695312 L 13.355469 -11.695312 L 14.351562 -19.328125 L 15.34375 -26.378906 C 15.511719 -27.207031 15.59375 -27.703125 15.59375 -27.953125 C 15.761719 -28.449219 15.84375 -28.78125 16.007812 -28.949219 C 16.175781 -29.195312 16.507812 -29.363281 16.839844 -29.363281 C 17.171875 -29.445312 17.75 -29.445312 18.746094 -29.445312 Z M 18.746094 -29.445312 "/></g></g></g><g fill="#ff00ff" fill-opacity="1"><g transform="translate(238.002092, 242.57099)"><g><path d="M 17.75 -41.058594 C 13.933594 -41.058594 11.445312 -41.058594 10.285156 -40.894531 C 8.792969 -40.726562 7.632812 -40.230469 6.800781 -39.484375 C 6.054688 -38.734375 5.472656 -37.410156 5.058594 -35.417969 L 4.0625 -29.445312 L 1.574219 -11.695312 C 1.160156 -8.378906 0.914062 -6.222656 0.828125 -5.144531 L 0.828125 -4.480469 C 0.828125 -3.402344 0.996094 -2.570312 1.328125 -1.90625 C 1.824219 -1.160156 2.652344 -0.664062 3.816406 -0.332031 C 4.976562 -0.164062 7.132812 0 10.453125 0 L 41.804688 0 L 41.804688 -1.410156 C 41.804688 -3.816406 41.804688 -5.558594 41.640625 -6.554688 C 41.554688 -8.292969 41.222656 -9.539062 40.5625 -10.203125 C 40.0625 -10.867188 39.152344 -11.28125 37.824219 -11.445312 C 36.910156 -11.613281 34.835938 -11.695312 31.601562 -11.695312 L 13.355469 -11.695312 C 13.519531 -12.523438 13.601562 -13.105469 13.601562 -13.355469 C 13.6875 -13.851562 13.769531 -14.183594 13.933594 -14.351562 C 14.101562 -14.515625 14.351562 -14.679688 14.597656 -14.679688 L 33.261719 -14.679688 C 36.164062 -14.679688 38.15625 -14.765625 39.234375 -14.929688 C 40.894531 -15.179688 42.054688 -15.675781 42.800781 -16.339844 C 43.464844 -17.003906 44.042969 -18.164062 44.375 -19.742188 C 44.707031 -20.902344 45.039062 -23.058594 45.453125 -26.378906 L 45.953125 -29.445312 C 46.285156 -32.101562 46.53125 -33.84375 46.617188 -34.835938 C 46.699219 -35.5 46.699219 -36.082031 46.699219 -36.578125 C 46.699219 -38.238281 46.367188 -39.398438 45.539062 -39.980469 C 44.875 -40.5625 43.628906 -40.894531 41.804688 -40.976562 C 40.808594 -41.058594 38.820312 -41.058594 35.832031 -41.058594 Z M 17.917969 -29.445312 L 34.089844 -29.445312 C 34.007812 -28.449219 33.925781 -27.871094 33.84375 -27.539062 C 33.84375 -27.207031 33.757812 -26.957031 33.59375 -26.792969 C 33.425781 -26.625 33.09375 -26.460938 32.597656 -26.378906 L 15.429688 -26.378906 C 15.59375 -27.371094 15.675781 -27.953125 15.675781 -28.203125 C 15.84375 -28.617188 15.925781 -28.78125 16.007812 -28.949219 C 16.175781 -29.113281 16.339844 -29.28125 16.507812 -29.363281 C 16.671875 -29.445312 17.171875 -29.445312 17.917969 -29.445312 Z M 17.917969 -29.445312 "/></g></g></g><g fill="#ff00ff" fill-opacity="1"><g transform="translate(284.200738, 242.57099)"><g><path d="M 15.761719 -58.144531 C 16.589844 -57.480469 17.171875 -57.066406 17.417969 -56.734375 C 17.917969 -56.402344 18.164062 -55.988281 18.332031 -55.65625 C 18.496094 -55.410156 18.496094 -55.078125 18.496094 -54.660156 C 18.496094 -54.414062 18.496094 -53.914062 18.414062 -53.085938 L 16.753906 -41.140625 L 15.011719 -41.140625 C 12.609375 -41.140625 10.867188 -41.140625 9.789062 -40.976562 C 8.378906 -40.808594 7.300781 -40.476562 6.46875 -39.980469 C 5.558594 -39.316406 4.8125 -37.988281 4.3125 -35.914062 C 4.148438 -34.921875 3.816406 -32.765625 3.316406 -29.527344 L 15.097656 -29.527344 L 14.679688 -26.460938 L 13.023438 -14.765625 L 12.609375 -11.777344 C 12.109375 -8.710938 11.777344 -6.636719 11.613281 -5.558594 L 11.613281 -4.230469 C 11.613281 -3.234375 11.777344 -2.40625 12.109375 -1.824219 C 12.609375 -1.078125 13.601562 -0.582031 15.097656 -0.332031 C 16.257812 -0.164062 18.664062 -0.0820312 22.230469 -0.0820312 L 29.695312 -0.0820312 C 33.179688 -0.0820312 35.5 -0.164062 36.664062 -0.332031 C 38.15625 -0.582031 39.234375 -0.996094 39.898438 -1.660156 C 40.5625 -2.324219 41.140625 -3.402344 41.472656 -4.8125 C 41.804688 -5.972656 42.136719 -8.292969 42.632812 -11.777344 L 24.386719 -11.777344 L 24.800781 -14.765625 L 26.460938 -26.460938 L 26.875 -29.527344 L 33.34375 -29.527344 C 36.996094 -29.527344 39.316406 -29.613281 40.476562 -29.695312 C 41.804688 -29.859375 42.71875 -30.191406 43.382812 -30.605469 C 44.375 -31.269531 45.121094 -32.347656 45.539062 -34.007812 C 45.871094 -35.167969 46.285156 -37.492188 46.78125 -41.140625 L 28.535156 -41.140625 L 29.28125 -46.53125 C 29.777344 -50.183594 29.945312 -52.503906 29.945312 -53.582031 C 29.945312 -55.078125 29.695312 -56.070312 29.195312 -56.734375 C 28.699219 -57.316406 27.703125 -57.730469 26.378906 -57.898438 C 25.714844 -58.0625 24.71875 -58.144531 23.390625 -58.144531 Z M 15.761719 -58.144531 "/></g></g></g><g fill="#00ffff" fill-opacity="1"><g transform="translate(44.415007, 242.57099)"><g><path d="M 3.980469 -29.445312 C 3.648438 -26.625 3.234375 -23.804688 2.820312 -20.902344 C 2.238281 -16.671875 1.824219 -13.601562 1.492188 -11.695312 C 1.160156 -9.042969 0.996094 -7.214844 0.828125 -6.222656 C 0.828125 -5.640625 0.746094 -5.058594 0.746094 -4.5625 C 0.746094 -3.484375 0.914062 -2.652344 1.246094 -2.074219 C 1.742188 -1.160156 2.820312 -0.582031 4.480469 -0.25 C 5.640625 -0.164062 7.714844 -0.0820312 10.867188 -0.0820312 L 29.945312 -0.0820312 C 29.777344 1.574219 29.613281 2.652344 29.445312 3.152344 C 29.28125 3.816406 29.113281 4.3125 28.78125 4.644531 C 28.535156 4.894531 28.117188 5.058594 27.539062 5.226562 C 27.039062 5.226562 26.046875 5.308594 24.550781 5.308594 L 10.203125 5.308594 C 7.714844 5.308594 5.890625 5.308594 4.8125 5.472656 C 3.402344 5.640625 2.324219 5.890625 1.574219 6.386719 C 0.582031 6.96875 -0.25 8.210938 -0.828125 10.035156 C -1.160156 11.113281 -1.742188 13.4375 -2.488281 17.003906 L 27.539062 17.003906 C 31.519531 17.003906 34.089844 16.839844 35.253906 16.671875 C 36.746094 16.421875 37.742188 15.925781 38.402344 15.179688 C 39.152344 14.351562 39.730469 13.105469 40.0625 11.363281 C 40.3125 10.203125 40.644531 8.210938 40.976562 5.308594 L 41.722656 -0.0820312 L 43.382812 -11.695312 L 44.375 -19.078125 L 45.871094 -29.445312 C 46.117188 -31.601562 46.285156 -33.179688 46.285156 -34.007812 L 46.285156 -37.242188 C 46.203125 -38.488281 45.871094 -39.316406 45.207031 -39.8125 C 44.875 -40.230469 44.292969 -40.476562 43.546875 -40.644531 C 43.050781 -40.808594 42.300781 -40.976562 41.390625 -40.976562 C 40.476562 -41.140625 38.570312 -41.140625 35.667969 -41.140625 L 17.417969 -41.140625 C 14.101562 -41.140625 11.863281 -41.140625 10.699219 -40.976562 C 8.875 -40.808594 7.632812 -40.3125 6.800781 -39.566406 C 6.136719 -38.902344 5.558594 -37.65625 5.058594 -35.914062 C 4.894531 -34.921875 4.480469 -32.765625 3.980469 -29.445312 Z M 18.746094 -29.445312 L 34.089844 -29.445312 L 32.015625 -14.679688 C 31.851562 -13.769531 31.769531 -13.105469 31.601562 -12.773438 C 31.519531 -12.441406 31.4375 -12.277344 31.1875 -12.109375 C 31.023438 -11.945312 30.691406 -11.863281 30.277344 -11.777344 C 29.945312 -11.777344 29.363281 -11.695312 28.449219 -11.695312 L 13.355469 -11.695312 L 14.351562 -19.328125 L 15.34375 -26.378906 C 15.511719 -27.207031 15.59375 -27.703125 15.59375 -27.953125 C 15.761719 -28.449219 15.84375 -28.78125 16.007812 -28.949219 C 16.175781 -29.195312 16.507812 -29.363281 16.839844 -29.363281 C 17.171875 -29.445312 17.75 -29.445312 18.746094 -29.445312 Z M 18.746094 -29.445312 "/></g></g></g><g fill="#00ffff" fill-opacity="1"><g transform="translate(91.526018, 242.57099)"><g><path d="M 37.824219 -41.140625 L 5.722656 -41.140625 L 5.722656 -39.730469 C 5.722656 -37.574219 5.804688 -35.914062 5.804688 -34.921875 C 5.972656 -33.09375 6.304688 -31.851562 6.800781 -31.105469 C 7.382812 -30.359375 8.378906 -29.859375 9.871094 -29.613281 C 10.867188 -29.527344 12.941406 -29.445312 15.925781 -29.445312 L 34.175781 -29.445312 C 34.089844 -28.535156 34.007812 -27.953125 33.925781 -27.621094 C 33.925781 -27.289062 33.84375 -27.039062 33.675781 -26.875 C 33.511719 -26.707031 33.261719 -26.542969 32.929688 -26.460938 C 32.765625 -26.460938 32.265625 -26.378906 31.601562 -26.378906 L 14.265625 -26.378906 C 11.199219 -26.378906 9.042969 -26.292969 7.878906 -26.128906 C 6.46875 -25.960938 5.390625 -25.464844 4.644531 -24.71875 C 3.980469 -24.054688 3.402344 -22.726562 2.984375 -20.738281 C 2.820312 -19.742188 2.488281 -17.75 2.074219 -14.765625 L 1.574219 -11.695312 C 1.160156 -8.378906 0.914062 -6.136719 0.828125 -4.976562 L 0.828125 -4.480469 C 0.828125 -3.152344 0.996094 -2.238281 1.492188 -1.574219 C 1.992188 -0.996094 2.820312 -0.582031 3.980469 -0.332031 C 5.144531 -0.164062 7.714844 0 11.695312 0 L 29.695312 0 C 33.84375 0 36.496094 -0.164062 37.65625 -0.332031 C 38.820312 -0.582031 39.730469 -0.914062 40.394531 -1.410156 C 41.140625 -1.992188 41.722656 -2.902344 42.054688 -4.0625 C 42.46875 -5.226562 42.964844 -7.714844 43.464844 -11.695312 L 44.625 -20.15625 L 45.953125 -29.445312 C 46.367188 -32.433594 46.617188 -34.421875 46.617188 -35.417969 C 46.699219 -35.914062 46.699219 -36.246094 46.699219 -36.578125 C 46.699219 -38.320312 46.285156 -39.484375 45.453125 -40.0625 C 44.957031 -40.476562 44.128906 -40.726562 42.964844 -40.894531 C 41.972656 -41.058594 40.230469 -41.140625 37.824219 -41.140625 Z M 15.761719 -14.765625 L 32.101562 -14.765625 C 32.015625 -13.851562 31.933594 -13.269531 31.851562 -12.941406 C 31.769531 -12.609375 31.6875 -12.277344 31.519531 -12.109375 C 31.4375 -11.945312 31.269531 -11.863281 30.9375 -11.777344 C 30.773438 -11.777344 30.277344 -11.695312 29.613281 -11.695312 L 13.355469 -11.695312 C 13.519531 -12.359375 13.601562 -12.855469 13.601562 -13.105469 C 13.6875 -13.769531 13.769531 -14.183594 13.933594 -14.351562 C 14.101562 -14.515625 14.265625 -14.679688 14.515625 -14.679688 C 14.679688 -14.765625 15.097656 -14.765625 15.761719 -14.765625 Z M 15.761719 -14.765625 "/></g></g></g><g fill="#00ffff" fill-opacity="1"><g transform="translate(138.968796, 242.57099)"><g><path d="M 37.410156 -50.929688 L 35.75 -41.058594 L 16.421875 -41.058594 C 13.4375 -41.058594 11.28125 -40.976562 10.121094 -40.808594 C 8.625 -40.644531 7.546875 -40.230469 6.882812 -39.566406 C 6.136719 -38.902344 5.558594 -37.574219 5.144531 -35.75 C 4.894531 -34.753906 4.5625 -32.597656 4.148438 -29.445312 C 3.980469 -28.035156 3.648438 -25.296875 2.984375 -21.152344 C 2.40625 -17.085938 1.992188 -13.933594 1.660156 -11.695312 C 1.246094 -8.957031 0.996094 -7.050781 0.914062 -6.054688 C 0.914062 -5.472656 0.828125 -4.976562 0.828125 -4.480469 C 0.828125 -3.484375 0.996094 -2.652344 1.246094 -2.074219 C 1.824219 -0.914062 3.402344 -0.25 5.890625 -0.0820312 C 6.882812 -0.0820312 8.792969 0 11.53125 0 L 30.191406 0 C 33.511719 0 35.75 -0.0820312 36.828125 -0.164062 C 38.984375 -0.414062 40.394531 -0.996094 41.140625 -1.992188 C 41.804688 -2.820312 42.21875 -4.0625 42.550781 -5.804688 C 42.800781 -6.800781 43.132812 -8.792969 43.464844 -11.695312 L 43.878906 -14.765625 L 47.527344 -41.058594 L 49.019531 -52.753906 C 49.1875 -53.417969 49.269531 -53.914062 49.269531 -54.164062 C 49.4375 -54.578125 49.601562 -54.910156 49.851562 -55.242188 C 50.101562 -55.574219 50.429688 -55.90625 50.847656 -56.320312 C 51.261719 -56.652344 51.925781 -57.234375 52.835938 -58.0625 L 48.855469 -58.0625 C 47.777344 -58.0625 46.78125 -57.980469 45.871094 -57.898438 C 44.625 -57.730469 43.546875 -57.566406 42.550781 -57.234375 C 41.640625 -56.984375 40.808594 -56.570312 40.144531 -56.070312 C 39.316406 -55.492188 38.652344 -54.660156 38.15625 -53.582031 C 37.824219 -52.835938 37.574219 -51.925781 37.410156 -50.929688 Z M 19.328125 -29.445312 L 34.089844 -29.445312 L 32.101562 -14.765625 C 31.933594 -13.933594 31.851562 -13.355469 31.6875 -13.023438 C 31.601562 -12.691406 31.4375 -12.359375 31.269531 -12.191406 C 31.105469 -11.945312 30.691406 -11.777344 30.109375 -11.695312 L 13.4375 -11.695312 L 15.511719 -26.378906 C 15.675781 -27.207031 15.761719 -27.703125 15.761719 -27.953125 C 15.925781 -28.449219 16.089844 -28.78125 16.257812 -28.949219 C 16.421875 -29.113281 16.589844 -29.28125 16.839844 -29.28125 C 17.003906 -29.363281 17.253906 -29.363281 17.585938 -29.363281 C 18.414062 -29.445312 18.996094 -29.445312 19.328125 -29.445312 Z M 19.328125 -29.445312 "/></g></g></g><g fill="#00ffff" fill-opacity="1"><g transform="translate(186.74334, 242.57099)"><g><path d="M 3.980469 -29.445312 C 3.648438 -26.625 3.234375 -23.804688 2.820312 -20.902344 C 2.238281 -16.671875 1.824219 -13.601562 1.492188 -11.695312 C 1.160156 -9.042969 0.996094 -7.214844 0.828125 -6.222656 C 0.828125 -5.640625 0.746094 -5.058594 0.746094 -4.5625 C 0.746094 -3.484375 0.914062 -2.652344 1.246094 -2.074219 C 1.742188 -1.160156 2.820312 -0.582031 4.480469 -0.25 C 5.640625 -0.164062 7.714844 -0.0820312 10.867188 -0.0820312 L 29.945312 -0.0820312 C 29.777344 1.574219 29.613281 2.652344 29.445312 3.152344 C 29.28125 3.816406 29.113281 4.3125 28.78125 4.644531 C 28.535156 4.894531 28.117188 5.058594 27.539062 5.226562 C 27.039062 5.226562 26.046875 5.308594 24.550781 5.308594 L 10.203125 5.308594 C 7.714844 5.308594 5.890625 5.308594 4.8125 5.472656 C 3.402344 5.640625 2.324219 5.890625 1.574219 6.386719 C 0.582031 6.96875 -0.25 8.210938 -0.828125 10.035156 C -1.160156 11.113281 -1.742188 13.4375 -2.488281 17.003906 L 27.539062 17.003906 C 31.519531 17.003906 34.089844 16.839844 35.253906 16.671875 C 36.746094 16.421875 37.742188 15.925781 38.402344 15.179688 C 39.152344 14.351562 39.730469 13.105469 40.0625 11.363281 C 40.3125 10.203125 40.644531 8.210938 40.976562 5.308594 L 41.722656 -0.0820312 L 43.382812 -11.695312 L 44.375 -19.078125 L 45.871094 -29.445312 C 46.117188 -31.601562 46.285156 -33.179688 46.285156 -34.007812 L 46.285156 -37.242188 C 46.203125 -38.488281 45.871094 -39.316406 45.207031 -39.8125 C 44.875 -40.230469 44.292969 -40.476562 43.546875 -40.644531 C 43.050781 -40.808594 42.300781 -40.976562 41.390625 -40.976562 C 40.476562 -41.140625 38.570312 -41.140625 35.667969 -41.140625 L 17.417969 -41.140625 C 14.101562 -41.140625 11.863281 -41.140625 10.699219 -40.976562 C 8.875 -40.808594 7.632812 -40.3125 6.800781 -39.566406 C 6.136719 -38.902344 5.558594 -37.65625 5.058594 -35.914062 C 4.894531 -34.921875 4.480469 -32.765625 3.980469 -29.445312 Z M 18.746094 -29.445312 L 34.089844 -29.445312 L 32.015625 -14.679688 C 31.851562 -13.769531 31.769531 -13.105469 31.601562 -12.773438 C 31.519531 -12.441406 31.4375 -12.277344 31.1875 -12.109375 C 31.023438 -11.945312 30.691406 -11.863281 30.277344 -11.777344 C 29.945312 -11.777344 29.363281 -11.695312 28.449219 -11.695312 L 13.355469 -11.695312 L 14.351562 -19.328125 L 15.34375 -26.378906 C 15.511719 -27.207031 15.59375 -27.703125 15.59375 -27.953125 C 15.761719 -28.449219 15.84375 -28.78125 16.007812 -28.949219 C 16.175781 -29.195312 16.507812 -29.363281 16.839844 -29.363281 C 17.171875 -29.445312 17.75 -29.445312 18.746094 -29.445312 Z M 18.746094 -29.445312 "/></g></g></g><g fill="#00ffff" fill-opacity="1"><g transform="translate(233.854351, 242.57099)"><g><path d="M 17.75 -41.058594 C 13.933594 -41.058594 11.445312 -41.058594 10.285156 -40.894531 C 8.792969 -40.726562 7.632812 -40.230469 6.800781 -39.484375 C 6.054688 -38.734375 5.472656 -37.410156 5.058594 -35.417969 L 4.0625 -29.445312 L 1.574219 -11.695312 C 1.160156 -8.378906 0.914062 -6.222656 0.828125 -5.144531 L 0.828125 -4.480469 C 0.828125 -3.402344 0.996094 -2.570312 1.328125 -1.90625 C 1.824219 -1.160156 2.652344 -0.664062 3.816406 -0.332031 C 4.976562 -0.164062 7.132812 0 10.453125 0 L 41.804688 0 L 41.804688 -1.410156 C 41.804688 -3.816406 41.804688 -5.558594 41.640625 -6.554688 C 41.554688 -8.292969 41.222656 -9.539062 40.5625 -10.203125 C 40.0625 -10.867188 39.152344 -11.28125 37.824219 -11.445312 C 36.910156 -11.613281 34.835938 -11.695312 31.601562 -11.695312 L 13.355469 -11.695312 C 13.519531 -12.523438 13.601562 -13.105469 13.601562 -13.355469 C 13.6875 -13.851562 13.769531 -14.183594 13.933594 -14.351562 C 14.101562 -14.515625 14.351562 -14.679688 14.597656 -14.679688 L 33.261719 -14.679688 C 36.164062 -14.679688 38.15625 -14.765625 39.234375 -14.929688 C 40.894531 -15.179688 42.054688 -15.675781 42.800781 -16.339844 C 43.464844 -17.003906 44.042969 -18.164062 44.375 -19.742188 C 44.707031 -20.902344 45.039062 -23.058594 45.453125 -26.378906 L 45.953125 -29.445312 C 46.285156 -32.101562 46.53125 -33.84375 46.617188 -34.835938 C 46.699219 -35.5 46.699219 -36.082031 46.699219 -36.578125 C 46.699219 -38.238281 46.367188 -39.398438 45.539062 -39.980469 C 44.875 -40.5625 43.628906 -40.894531 41.804688 -40.976562 C 40.808594 -41.058594 38.820312 -41.058594 35.832031 -41.058594 Z M 17.917969 -29.445312 L 34.089844 -29.445312 C 34.007812 -28.449219 33.925781 -27.871094 33.84375 -27.539062 C 33.84375 -27.207031 33.757812 -26.957031 33.59375 -26.792969 C 33.425781 -26.625 33.09375 -26.460938 32.597656 -26.378906 L 15.429688 -26.378906 C 15.59375 -27.371094 15.675781 -27.953125 15.675781 -28.203125 C 15.84375 -28.617188 15.925781 -28.78125 16.007812 -28.949219 C 16.175781 -29.113281 16.339844 -29.28125 16.507812 -29.363281 C 16.671875 -29.445312 17.171875 -29.445312 17.917969 -29.445312 Z M 17.917969 -29.445312 "/></g></g></g><g fill="#00ffff" fill-opacity="1"><g transform="translate(280.052996, 242.57099)"><g><path d="M 15.761719 -58.144531 C 16.589844 -57.480469 17.171875 -57.066406 17.417969 -56.734375 C 17.917969 -56.402344 18.164062 -55.988281 18.332031 -55.65625 C 18.496094 -55.410156 18.496094 -55.078125 18.496094 -54.660156 C 18.496094 -54.414062 18.496094 -53.914062 18.414062 -53.085938 L 16.753906 -41.140625 L 15.011719 -41.140625 C 12.609375 -41.140625 10.867188 -41.140625 9.789062 -40.976562 C 8.378906 -40.808594 7.300781 -40.476562 6.46875 -39.980469 C 5.558594 -39.316406 4.8125 -37.988281 4.3125 -35.914062 C 4.148438 -34.921875 3.816406 -32.765625 3.316406 -29.527344 L 15.097656 -29.527344 L 14.679688 -26.460938 L 13.023438 -14.765625 L 12.609375 -11.777344 C 12.109375 -8.710938 11.777344 -6.636719 11.613281 -5.558594 L 11.613281 -4.230469 C 11.613281 -3.234375 11.777344 -2.40625 12.109375 -1.824219 C 12.609375 -1.078125 13.601562 -0.582031 15.097656 -0.332031 C 16.257812 -0.164062 18.664062 -0.0820312 22.230469 -0.0820312 L 29.695312 -0.0820312 C 33.179688 -0.0820312 35.5 -0.164062 36.664062 -0.332031 C 38.15625 -0.582031 39.234375 -0.996094 39.898438 -1.660156 C 40.5625 -2.324219 41.140625 -3.402344 41.472656 -4.8125 C 41.804688 -5.972656 42.136719 -8.292969 42.632812 -11.777344 L 24.386719 -11.777344 L 24.800781 -14.765625 L 26.460938 -26.460938 L 26.875 -29.527344 L 33.34375 -29.527344 C 36.996094 -29.527344 39.316406 -29.613281 40.476562 -29.695312 C 41.804688 -29.859375 42.71875 -30.191406 43.382812 -30.605469 C 44.375 -31.269531 45.121094 -32.347656 45.539062 -34.007812 C 45.871094 -35.167969 46.285156 -37.492188 46.78125 -41.140625 L 28.535156 -41.140625 L 29.28125 -46.53125 C 29.777344 -50.183594 29.945312 -52.503906 29.945312 -53.582031 C 29.945312 -55.078125 29.695312 -56.070312 29.195312 -56.734375 C 28.699219 -57.316406 27.703125 -57.730469 26.378906 -57.898438 C 25.714844 -58.0625 24.71875 -58.144531 23.390625 -58.144531 Z M 15.761719 -58.144531 "/></g></g></g><g fill="#000000" fill-opacity="1"><g transform="translate(46.488878, 242.57099)"><g><path d="M 3.980469 -29.445312 C 3.648438 -26.625 3.234375 -23.804688 2.820312 -20.902344 C 2.238281 -16.671875 1.824219 -13.601562 1.492188 -11.695312 C 1.160156 -9.042969 0.996094 -7.214844 0.828125 -6.222656 C 0.828125 -5.640625 0.746094 -5.058594 0.746094 -4.5625 C 0.746094 -3.484375 0.914062 -2.652344 1.246094 -2.074219 C 1.742188 -1.160156 2.820312 -0.582031 4.480469 -0.25 C 5.640625 -0.164062 7.714844 -0.0820312 10.867188 -0.0820312 L 29.945312 -0.0820312 C 29.777344 1.574219 29.613281 2.652344 29.445312 3.152344 C 29.28125 3.816406 29.113281 4.3125 28.78125 4.644531 C 28.535156 4.894531 28.117188 5.058594 27.539062 5.226562 C 27.039062 5.226562 26.046875 5.308594 24.550781 5.308594 L 10.203125 5.308594 C 7.714844 5.308594 5.890625 5.308594 4.8125 5.472656 C 3.402344 5.640625 2.324219 5.890625 1.574219 6.386719 C 0.582031 6.96875 -0.25 8.210938 -0.828125 10.035156 C -1.160156 11.113281 -1.742188 13.4375 -2.488281 17.003906 L 27.539062 17.003906 C 31.519531 17.003906 34.089844 16.839844 35.253906 16.671875 C 36.746094 16.421875 37.742188 15.925781 38.402344 15.179688 C 39.152344 14.351562 39.730469 13.105469 40.0625 11.363281 C 40.3125 10.203125 40.644531 8.210938 40.976562 5.308594 L 41.722656 -0.0820312 L 43.382812 -11.695312 L 44.375 -19.078125 L 45.871094 -29.445312 C 46.117188 -31.601562 46.285156 -33.179688 46.285156 -34.007812 L 46.285156 -37.242188 C 46.203125 -38.488281 45.871094 -39.316406 45.207031 -39.8125 C 44.875 -40.230469 44.292969 -40.476562 43.546875 -40.644531 C 43.050781 -40.808594 42.300781 -40.976562 41.390625 -40.976562 C 40.476562 -41.140625 38.570312 -41.140625 35.667969 -41.140625 L 17.417969 -41.140625 C 14.101562 -41.140625 11.863281 -41.140625 10.699219 -40.976562 C 8.875 -40.808594 7.632812 -40.3125 6.800781 -39.566406 C 6.136719 -38.902344 5.558594 -37.65625 5.058594 -35.914062 C 4.894531 -34.921875 4.480469 -32.765625 3.980469 -29.445312 Z M 18.746094 -29.445312 L 34.089844 -29.445312 L 32.015625 -14.679688 C 31.851562 -13.769531 31.769531 -13.105469 31.601562 -12.773438 C 31.519531 -12.441406 31.4375 -12.277344 31.1875 -12.109375 C 31.023438 -11.945312 30.691406 -11.863281 30.277344 -11.777344 C 29.945312 -11.777344 29.363281 -11.695312 28.449219 -11.695312 L 13.355469 -11.695312 L 14.351562 -19.328125 L 15.34375 -26.378906 C 15.511719 -27.207031 15.59375 -27.703125 15.59375 -27.953125 C 15.761719 -28.449219 15.84375 -28.78125 16.007812 -28.949219 C 16.175781 -29.195312 16.507812 -29.363281 16.839844 -29.363281 C 17.171875 -29.445312 17.75 -29.445312 18.746094 -29.445312 Z M 18.746094 -29.445312 "/></g></g></g><g fill="#000000" fill-opacity="1"><g transform="translate(93.599888, 242.57099)"><g><path d="M 37.824219 -41.140625 L 5.722656 -41.140625 L 5.722656 -39.730469 C 5.722656 -37.574219 5.804688 -35.914062 5.804688 -34.921875 C 5.972656 -33.09375 6.304688 -31.851562 6.800781 -31.105469 C 7.382812 -30.359375 8.378906 -29.859375 9.871094 -29.613281 C 10.867188 -29.527344 12.941406 -29.445312 15.925781 -29.445312 L 34.175781 -29.445312 C 34.089844 -28.535156 34.007812 -27.953125 33.925781 -27.621094 C 33.925781 -27.289062 33.84375 -27.039062 33.675781 -26.875 C 33.511719 -26.707031 33.261719 -26.542969 32.929688 -26.460938 C 32.765625 -26.460938 32.265625 -26.378906 31.601562 -26.378906 L 14.265625 -26.378906 C 11.199219 -26.378906 9.042969 -26.292969 7.878906 -26.128906 C 6.46875 -25.960938 5.390625 -25.464844 4.644531 -24.71875 C 3.980469 -24.054688 3.402344 -22.726562 2.984375 -20.738281 C 2.820312 -19.742188 2.488281 -17.75 2.074219 -14.765625 L 1.574219 -11.695312 C 1.160156 -8.378906 0.914062 -6.136719 0.828125 -4.976562 L 0.828125 -4.480469 C 0.828125 -3.152344 0.996094 -2.238281 1.492188 -1.574219 C 1.992188 -0.996094 2.820312 -0.582031 3.980469 -0.332031 C 5.144531 -0.164062 7.714844 0 11.695312 0 L 29.695312 0 C 33.84375 0 36.496094 -0.164062 37.65625 -0.332031 C 38.820312 -0.582031 39.730469 -0.914062 40.394531 -1.410156 C 41.140625 -1.992188 41.722656 -2.902344 42.054688 -4.0625 C 42.46875 -5.226562 42.964844 -7.714844 43.464844 -11.695312 L 44.625 -20.15625 L 45.953125 -29.445312 C 46.367188 -32.433594 46.617188 -34.421875 46.617188 -35.417969 C 46.699219 -35.914062 46.699219 -36.246094 46.699219 -36.578125 C 46.699219 -38.320312 46.285156 -39.484375 45.453125 -40.0625 C 44.957031 -40.476562 44.128906 -40.726562 42.964844 -40.894531 C 41.972656 -41.058594 40.230469 -41.140625 37.824219 -41.140625 Z M 15.761719 -14.765625 L 32.101562 -14.765625 C 32.015625 -13.851562 31.933594 -13.269531 31.851562 -12.941406 C 31.769531 -12.609375 31.6875 -12.277344 31.519531 -12.109375 C 31.4375 -11.945312 31.269531 -11.863281 30.9375 -11.777344 C 30.773438 -11.777344 30.277344 -11.695312 29.613281 -11.695312 L 13.355469 -11.695312 C 13.519531 -12.359375 13.601562 -12.855469 13.601562 -13.105469 C 13.6875 -13.769531 13.769531 -14.183594 13.933594 -14.351562 C 14.101562 -14.515625 14.265625 -14.679688 14.515625 -14.679688 C 14.679688 -14.765625 15.097656 -14.765625 15.761719 -14.765625 Z M 15.761719 -14.765625 "/></g></g></g><g fill="#000000" fill-opacity="1"><g transform="translate(141.042667, 242.57099)"><g><path d="M 37.410156 -50.929688 L 35.75 -41.058594 L 16.421875 -41.058594 C 13.4375 -41.058594 11.28125 -40.976562 10.121094 -40.808594 C 8.625 -40.644531 7.546875 -40.230469 6.882812 -39.566406 C 6.136719 -38.902344 5.558594 -37.574219 5.144531 -35.75 C 4.894531 -34.753906 4.5625 -32.597656 4.148438 -29.445312 C 3.980469 -28.035156 3.648438 -25.296875 2.984375 -21.152344 C 2.40625 -17.085938 1.992188 -13.933594 1.660156 -11.695312 C 1.246094 -8.957031 0.996094 -7.050781 0.914062 -6.054688 C 0.914062 -5.472656 0.828125 -4.976562 0.828125 -4.480469 C 0.828125 -3.484375 0.996094 -2.652344 1.246094 -2.074219 C 1.824219 -0.914062 3.402344 -0.25 5.890625 -0.0820312 C 6.882812 -0.0820312 8.792969 0 11.53125 0 L 30.191406 0 C 33.511719 0 35.75 -0.0820312 36.828125 -0.164062 C 38.984375 -0.414062 40.394531 -0.996094 41.140625 -1.992188 C 41.804688 -2.820312 42.21875 -4.0625 42.550781 -5.804688 C 42.800781 -6.800781 43.132812 -8.792969 43.464844 -11.695312 L 43.878906 -14.765625 L 47.527344 -41.058594 L 49.019531 -52.753906 C 49.1875 -53.417969 49.269531 -53.914062 49.269531 -54.164062 C 49.4375 -54.578125 49.601562 -54.910156 49.851562 -55.242188 C 50.101562 -55.574219 50.429688 -55.90625 50.847656 -56.320312 C 51.261719 -56.652344 51.925781 -57.234375 52.835938 -58.0625 L 48.855469 -58.0625 C 47.777344 -58.0625 46.78125 -57.980469 45.871094 -57.898438 C 44.625 -57.730469 43.546875 -57.566406 42.550781 -57.234375 C 41.640625 -56.984375 40.808594 -56.570312 40.144531 -56.070312 C 39.316406 -55.492188 38.652344 -54.660156 38.15625 -53.582031 C 37.824219 -52.835938 37.574219 -51.925781 37.410156 -50.929688 Z M 19.328125 -29.445312 L 34.089844 -29.445312 L 32.101562 -14.765625 C 31.933594 -13.933594 31.851562 -13.355469 31.6875 -13.023438 C 31.601562 -12.691406 31.4375 -12.359375 31.269531 -12.191406 C 31.105469 -11.945312 30.691406 -11.777344 30.109375 -11.695312 L 13.4375 -11.695312 L 15.511719 -26.378906 C 15.675781 -27.207031 15.761719 -27.703125 15.761719 -27.953125 C 15.925781 -28.449219 16.089844 -28.78125 16.257812 -28.949219 C 16.421875 -29.113281 16.589844 -29.28125 16.839844 -29.28125 C 17.003906 -29.363281 17.253906 -29.363281 17.585938 -29.363281 C 18.414062 -29.445312 18.996094 -29.445312 19.328125 -29.445312 Z M 19.328125 -29.445312 "/></g></g></g><g fill="#000000" fill-opacity="1"><g transform="translate(188.817211, 242.57099)"><g><path d="M 3.980469 -29.445312 C 3.648438 -26.625 3.234375 -23.804688 2.820312 -20.902344 C 2.238281 -16.671875 1.824219 -13.601562 1.492188 -11.695312 C 1.160156 -9.042969 0.996094 -7.214844 0.828125 -6.222656 C 0.828125 -5.640625 0.746094 -5.058594 0.746094 -4.5625 C 0.746094 -3.484375 0.914062 -2.652344 1.246094 -2.074219 C 1.742188 -1.160156 2.820312 -0.582031 4.480469 -0.25 C 5.640625 -0.164062 7.714844 -0.0820312 10.867188 -0.0820312 L 29.945312 -0.0820312 C 29.777344 1.574219 29.613281 2.652344 29.445312 3.152344 C 29.28125 3.816406 29.113281 4.3125 28.78125 4.644531 C 28.535156 4.894531 28.117188 5.058594 27.539062 5.226562 C 27.039062 5.226562 26.046875 5.308594 24.550781 5.308594 L 10.203125 5.308594 C 7.714844 5.308594 5.890625 5.308594 4.8125 5.472656 C 3.402344 5.640625 2.324219 5.890625 1.574219 6.386719 C 0.582031 6.96875 -0.25 8.210938 -0.828125 10.035156 C -1.160156 11.113281 -1.742188 13.4375 -2.488281 17.003906 L 27.539062 17.003906 C 31.519531 17.003906 34.089844 16.839844 35.253906 16.671875 C 36.746094 16.421875 37.742188 15.925781 38.402344 15.179688 C 39.152344 14.351562 39.730469 13.105469 40.0625 11.363281 C 40.3125 10.203125 40.644531 8.210938 40.976562 5.308594 L 41.722656 -0.0820312 L 43.382812 -11.695312 L 44.375 -19.078125 L 45.871094 -29.445312 C 46.117188 -31.601562 46.285156 -33.179688 46.285156 -34.007812 L 46.285156 -37.242188 C 46.203125 -38.488281 45.871094 -39.316406 45.207031 -39.8125 C 44.875 -40.230469 44.292969 -40.476562 43.546875 -40.644531 C 43.050781 -40.808594 42.300781 -40.976562 41.390625 -40.976562 C 40.476562 -41.140625 38.570312 -41.140625 35.667969 -41.140625 L 17.417969 -41.140625 C 14.101562 -41.140625 11.863281 -41.140625 10.699219 -40.976562 C 8.875 -40.808594 7.632812 -40.3125 6.800781 -39.566406 C 6.136719 -38.902344 5.558594 -37.65625 5.058594 -35.914062 C 4.894531 -34.921875 4.480469 -32.765625 3.980469 -29.445312 Z M 18.746094 -29.445312 L 34.089844 -29.445312 L 32.015625 -14.679688 C 31.851562 -13.769531 31.769531 -13.105469 31.601562 -12.773438 C 31.519531 -12.441406 31.4375 -12.277344 31.1875 -12.109375 C 31.023438 -11.945312 30.691406 -11.863281 30.277344 -11.777344 C 29.945312 -11.777344 29.363281 -11.695312 28.449219 -11.695312 L 13.355469 -11.695312 L 14.351562 -19.328125 L 15.34375 -26.378906 C 15.511719 -27.207031 15.59375 -27.703125 15.59375 -27.953125 C 15.761719 -28.449219 15.84375 -28.78125 16.007812 -28.949219 C 16.175781 -29.195312 16.507812 -29.363281 16.839844 -29.363281 C 17.171875 -29.445312 17.75 -29.445312 18.746094 -29.445312 Z M 18.746094 -29.445312 "/></g></g></g><g fill="#000000" fill-opacity="1"><g transform="translate(235.928222, 242.57099)"><g><path d="M 17.75 -41.058594 C 13.933594 -41.058594 11.445312 -41.058594 10.285156 -40.894531 C 8.792969 -40.726562 7.632812 -40.230469 6.800781 -39.484375 C 6.054688 -38.734375 5.472656 -37.410156 5.058594 -35.417969 L 4.0625 -29.445312 L 1.574219 -11.695312 C 1.160156 -8.378906 0.914062 -6.222656 0.828125 -5.144531 L 0.828125 -4.480469 C 0.828125 -3.402344 0.996094 -2.570312 1.328125 -1.90625 C 1.824219 -1.160156 2.652344 -0.664062 3.816406 -0.332031 C 4.976562 -0.164062 7.132812 0 10.453125 0 L 41.804688 0 L 41.804688 -1.410156 C 41.804688 -3.816406 41.804688 -5.558594 41.640625 -6.554688 C 41.554688 -8.292969 41.222656 -9.539062 40.5625 -10.203125 C 40.0625 -10.867188 39.152344 -11.28125 37.824219 -11.445312 C 36.910156 -11.613281 34.835938 -11.695312 31.601562 -11.695312 L 13.355469 -11.695312 C 13.519531 -12.523438 13.601562 -13.105469 13.601562 -13.355469 C 13.6875 -13.851562 13.769531 -14.183594 13.933594 -14.351562 C 14.101562 -14.515625 14.351562 -14.679688 14.597656 -14.679688 L 33.261719 -14.679688 C 36.164062 -14.679688 38.15625 -14.765625 39.234375 -14.929688 C 40.894531 -15.179688 42.054688 -15.675781 42.800781 -16.339844 C 43.464844 -17.003906 44.042969 -18.164062 44.375 -19.742188 C 44.707031 -20.902344 45.039062 -23.058594 45.453125 -26.378906 L 45.953125 -29.445312 C 46.285156 -32.101562 46.53125 -33.84375 46.617188 -34.835938 C 46.699219 -35.5 46.699219 -36.082031 46.699219 -36.578125 C 46.699219 -38.238281 46.367188 -39.398438 45.539062 -39.980469 C 44.875 -40.5625 43.628906 -40.894531 41.804688 -40.976562 C 40.808594 -41.058594 38.820312 -41.058594 35.832031 -41.058594 Z M 17.917969 -29.445312 L 34.089844 -29.445312 C 34.007812 -28.449219 33.925781 -27.871094 33.84375 -27.539062 C 33.84375 -27.207031 33.757812 -26.957031 33.59375 -26.792969 C 33.425781 -26.625 33.09375 -26.460938 32.597656 -26.378906 L 15.429688 -26.378906 C 15.59375 -27.371094 15.675781 -27.953125 15.675781 -28.203125 C 15.84375 -28.617188 15.925781 -28.78125 16.007812 -28.949219 C 16.175781 -29.113281 16.339844 -29.28125 16.507812 -29.363281 C 16.671875 -29.445312 17.171875 -29.445312 17.917969 -29.445312 Z M 17.917969 -29.445312 "/></g></g></g><g fill="#000000" fill-opacity="1"><g transform="translate(282.126867, 242.57099)"><g><path d="M 15.761719 -58.144531 C 16.589844 -57.480469 17.171875 -57.066406 17.417969 -56.734375 C 17.917969 -56.402344 18.164062 -55.988281 18.332031 -55.65625 C 18.496094 -55.410156 18.496094 -55.078125 18.496094 -54.660156 C 18.496094 -54.414062 18.496094 -53.914062 18.414062 -53.085938 L 16.753906 -41.140625 L 15.011719 -41.140625 C 12.609375 -41.140625 10.867188 -41.140625 9.789062 -40.976562 C 8.378906 -40.808594 7.300781 -40.476562 6.46875 -39.980469 C 5.558594 -39.316406 4.8125 -37.988281 4.3125 -35.914062 C 4.148438 -34.921875 3.816406 -32.765625 3.316406 -29.527344 L 15.097656 -29.527344 L 14.679688 -26.460938 L 13.023438 -14.765625 L 12.609375 -11.777344 C 12.109375 -8.710938 11.777344 -6.636719 11.613281 -5.558594 L 11.613281 -4.230469 C 11.613281 -3.234375 11.777344 -2.40625 12.109375 -1.824219 C 12.609375 -1.078125 13.601562 -0.582031 15.097656 -0.332031 C 16.257812 -0.164062 18.664062 -0.0820312 22.230469 -0.0820312 L 29.695312 -0.0820312 C 33.179688 -0.0820312 35.5 -0.164062 36.664062 -0.332031 C 38.15625 -0.582031 39.234375 -0.996094 39.898438 -1.660156 C 40.5625 -2.324219 41.140625 -3.402344 41.472656 -4.8125 C 41.804688 -5.972656 42.136719 -8.292969 42.632812 -11.777344 L 24.386719 -11.777344 L 24.800781 -14.765625 L 26.460938 -26.460938 L 26.875 -29.527344 L 33.34375 -29.527344 C 36.996094 -29.527344 39.316406 -29.613281 40.476562 -29.695312 C 41.804688 -29.859375 42.71875 -30.191406 43.382812 -30.605469 C 44.375 -31.269531 45.121094 -32.347656 45.539062 -34.007812 C 45.871094 -35.167969 46.285156 -37.492188 46.78125 -41.140625 L 28.535156 -41.140625 L 29.28125 -46.53125 C 29.777344 -50.183594 29.945312 -52.503906 29.945312 -53.582031 C 29.945312 -55.078125 29.695312 -56.070312 29.195312 -56.734375 C 28.699219 -57.316406 27.703125 -57.730469 26.378906 -57.898438 C 25.714844 -58.0625 24.71875 -58.144531 23.390625 -58.144531 Z M 15.761719 -58.144531 "/></g></g></g></svg>